<svg width="480" height="531" xmlns="http://www.w3.org/2000/svg" xmlns:xlink="http://www.w3.org/1999/xlink" xml:space="preserve" overflow="hidden"><defs><clipPath id="clip0"><rect x="413" y="98" width="480" height="531"/></clipPath></defs><g clip-path="url(#clip0)" transform="translate(-413 -98)"><path d="M0 718.899 992.654 718.899 992.654 0 0 0Z" fill="#FFFFFF" transform="matrix(1.00153 0 0 1 142.96 0.625198)"/><path d="M251.676 639.82 765.794 639.82 765.794 86.2678 251.676 86.2678Z" fill="#FFFFFF" transform="matrix(1.00153 0 0 1 142.96 0.625198)"/><path d="M483.36 249.113C485.521 249.113 487.595 248.254 489.123 246.725 490.651 245.197 491.51 243.124 491.51 240.962 491.51 238.801 490.651 236.727 489.123 235.199 487.595 233.67 485.521 232.812 483.36 232.812 481.198 232.812 479.125 233.67 477.597 235.199 476.068 236.727 475.209 238.801 475.209 240.962 475.209 243.124 476.068 245.197 477.597 246.725 479.125 248.254 481.198 249.113 483.36 249.113L483.36 249.113Z" stroke="#008000" stroke-width="1.61565" fill="none" transform="matrix(1.00153 0 0 1 142.96 0.625198)"/><path d="M411.287 508.266 407.463 508.833 407.672 507.649 367.539 500.573 367.546 500.533 407.679 507.609 407.888 506.425Z" stroke="#000000" stroke-width="1.0771" transform="matrix(1.00153 0 0 1 142.96 0.625198)"/><path d="M375.256 456.808 375.823 460.632 374.639 460.423 367.563 500.556 367.523 500.549 374.599 460.416 373.415 460.207Z" stroke="#000000" stroke-width="1.0771" transform="matrix(1.00153 0 0 1 142.96 0.625198)"/><path d="M411.962 500.553 408.295 501.775 408.295 500.573 367.543 500.573 367.543 500.532 408.295 500.532 408.295 499.33Z" stroke="#0000FF" stroke-width="1.0771" fill="#0000FF" transform="matrix(1.00153 0 0 1 142.96 0.625198)"/><path d="M367.543 456.133 368.765 459.801 367.563 459.801 367.563 500.553 367.522 500.553 367.522 459.801 366.32 459.801Z" stroke="#0000FF" stroke-width="1.0771" fill="#0000FF" transform="matrix(1.00153 0 0 1 142.96 0.625198)"/><path d="M705.551 523.255 701.716 522.765 702.237 521.682 665.521 504.001 665.538 503.964 702.255 521.645 702.777 520.562Z" stroke="#FF0000" stroke-width="1.0771" fill="#FF0000" transform="matrix(1.00153 0 0 1 142.96 0.625198)"/><path d="M680.994 453.082 680.504 456.917 679.421 456.395 661.741 493.112 661.704 493.094 679.384 456.378 678.301 455.856Z" stroke="#FF0000" stroke-width="1.0771" fill="#FF0000" transform="matrix(1.00153 0 0 1 142.96 0.625198)"/><path d="M658.186 508.597C660.348 508.597 662.421 507.738 663.949 506.21 665.478 504.681 666.336 502.608 666.336 500.447 666.336 498.285 665.478 496.212 663.949 494.683 662.421 493.155 660.348 492.296 658.186 492.296 656.025 492.296 653.951 493.155 652.423 494.683 650.894 496.212 650.036 498.285 650.036 500.447 650.036 502.608 650.894 504.681 652.423 506.21 653.951 507.738 656.025 508.597 658.186 508.597L658.186 508.597Z" stroke="#FF0000" stroke-width="1.61565" fill="none" transform="matrix(1.00153 0 0 1 142.96 0.625198)"/><path d="M-3.2313 0 3.2313 0M0 3.2313 0-3.2313" stroke="#000000" stroke-width="1.61565" stroke-linejoin="round" transform="matrix(1.00153 0 0 1 522.67 366.696)"/><path d="M558.274 386.014C546.077 377.246 531.784 371.842 516.838 370.347 501.891 368.851 486.811 371.317 473.119 377.496" stroke="#FF0000" stroke-width="1.61565" fill="none" transform="matrix(1.00153 0 0 1 142.96 0.625198)"/><path d="M275.045 451.226C289.991 469.496 309.488 483.512 331.567 491.861 353.646 500.209 377.539 502.599 400.834 498.79" stroke="#FF0000" stroke-width="1.61565" fill="none" transform="matrix(1.00153 0 0 1 142.96 0.625198)"/><path d="M477.285 188.744 478.923 192.246 477.729 192.385 482.438 232.864 482.398 232.869 477.688 192.39 476.494 192.529Z" stroke="#008000" stroke-width="1.0771" fill="#008000" transform="matrix(1.00153 0 0 1 142.96 0.625198)"/><path d="M431.142 247.037 434.644 245.399 434.783 246.593 475.262 241.884 475.266 241.924 434.787 246.634 434.926 247.828Z" stroke="#008000" stroke-width="1.0771" fill="#008000" transform="matrix(1.00153 0 0 1 142.96 0.625198)"/><path d="M483.36 249.113C485.521 249.113 487.595 248.254 489.123 246.725 490.651 245.197 491.51 243.124 491.51 240.962 491.51 238.801 490.651 236.727 489.123 235.199 487.595 233.67 485.521 232.812 483.36 232.812 481.198 232.812 479.125 233.67 477.597 235.199 476.068 236.727 475.209 238.801 475.209 240.962 475.209 243.124 476.068 245.197 477.597 246.725 479.125 248.254 481.198 249.113 483.36 249.113L483.36 249.113Z" stroke="#008000" stroke-width="1.61565" fill="none" transform="matrix(1.00153 0 0 1 142.96 0.625198)"/><path d="M468.29 111.429C433.949 115.425 402.568 132.917 381.11 160.025 359.653 187.132 349.832 221.691 353.827 256.032 357.822 290.373 375.314 321.754 402.422 343.212 429.53 364.669 464.089 374.49 498.43 370.495" stroke="#008000" stroke-width="1.61565" fill="none" transform="matrix(1.00153 0 0 1 142.96 0.625198)"/><path d="M498.43 370.495C532.771 366.5 564.152 349.007 585.609 321.9 607.067 294.792 616.888 260.233 612.893 225.892 608.897 191.551 591.405 160.17 564.297 138.713 537.189 117.255 502.631 107.434 468.29 111.429" stroke="#008000" stroke-width="1.0771" stroke-dasharray="6.89343 1.72336 1.0771 1.72336" fill="none" transform="matrix(1.00153 0 0 1 142.96 0.625198)"/><path d="M498.43 370.495C567.112 362.504 631.462 341.176 677.203 311.244 722.943 281.311 746.421 245.163 742.425 210.822 738.43 176.481 707.282 146.689 655.891 128.056 604.5 109.424 536.972 103.439 468.29 111.429" stroke="#008000" stroke-width="1.61565" fill="none" transform="matrix(1.00153 0 0 1 142.96 0.625198)"/><path d="M487.941 521.782C488.559 518.279 489.023 514.751 489.333 511.208 489.643 507.665 489.799 504.109 489.799 500.553" stroke="#0000FF" stroke-width="1.0771" fill="none" transform="matrix(1.00153 0 0 1 142.96 0.625198)"/><path d="M489.799 500.553 491.429 504.628 488.169 504.628Z" stroke="#0000FF" stroke-width="1.0771" fill="#0000FF" transform="matrix(1.00153 0 0 1 142.96 0.625198)"/><path d="M584.752 465.085C582.105 470.584 580.083 476.362 578.725 482.311 577.367 488.261 576.682 494.344 576.682 500.447" stroke="#FF0000" stroke-width="1.0771" fill="none" transform="matrix(1.00153 0 0 1 142.96 0.625198)"/><path d="M584.752 465.085 584.453 469.464 581.516 468.05Z" stroke="#FF0000" stroke-width="1.0771" fill="#FF0000" transform="matrix(1.00153 0 0 1 142.96 0.625198)"/><path d="M630.576 455.501C630.576 438.254 626.926 421.201 619.868 405.465 612.809 389.729 602.5 375.663 589.619 364.194 576.739 352.725 561.576 344.111 545.129 338.918 528.683 333.725 511.322 332.071 494.191 334.064" stroke="#000000" stroke-width="1.0771" fill="none" transform="matrix(1.00153 0 0 1 142.96 0.625198)"/><path d="M494.191 334.064 498.051 331.974 498.428 335.212Z" stroke="#000000" stroke-width="1.0771" transform="matrix(1.00153 0 0 1 142.96 0.625198)"/><path d="M347.167 598.357 387.919 598.357 387.919 533.154 347.167 533.154 347.167 598.357Z" stroke="#000000" stroke-width="1.0771" fill="none" transform="matrix(1.00153 0 0 1 142.96 0.625198)"/><path d="M-3.2313 0 3.2313 0M0 3.2313 0-3.2313" stroke="#000000" stroke-width="1.0771" stroke-linejoin="round" transform="matrix(1.00153 0 0 1 511.064 501.178)"/><path d="M-3.2313 0 3.2313 0M0 3.2313 0-3.2313" stroke="#0000FF" stroke-width="1.0771" stroke-linejoin="round" fill="#0000FF" transform="matrix(1.00153 0 0 1 511.064 501.178)"/><path d="M-3.2313 0 3.2313 0M0 3.2313 0-3.2313" stroke="#FF00FF" stroke-width="1.0771" stroke-linejoin="round" fill="#FF00FF" transform="matrix(1.00153 0 0 1 652.056 456.126)"/><path d="M343.091 500.553 391.994 500.553" stroke="#0000FF" stroke-width="1.61565" stroke-linecap="square" stroke-linejoin="round" fill="none" transform="matrix(1.00153 0 0 1 142.96 0.625198)"/><path d="M367.543 500.553 367.543 614.658" stroke="#0000FF" stroke-width="1.61565" stroke-linecap="square" stroke-linejoin="round" fill="none" transform="matrix(1.00153 0 0 1 142.96 0.625198)"/><path d="M650.843 496.91 379.131 366.071" stroke="#FF0000" stroke-width="1.61565" stroke-linecap="square" stroke-linejoin="round" fill="none" transform="matrix(1.00153 0 0 1 142.96 0.625198)"/><path d="M508.319 455.501 473.119 377.496" stroke="#FF0000" stroke-width="0.861679" stroke-linejoin="round" stroke-dasharray="5.51474 1.37869 0.861679 1.37869" fill="none" transform="matrix(1.00153 0 0 1 142.96 0.625198)"/><path d="M508.319 455.501 558.274 386.014" stroke="#FF0000" stroke-width="0.861679" stroke-linejoin="round" stroke-dasharray="5.51474 1.37869 0.861679 1.37869" fill="none" transform="matrix(1.00153 0 0 1 142.96 0.625198)"/><path d="M379.131 366.071 400.834 498.79" stroke="#FF0000" stroke-width="0.861679" stroke-linejoin="round" stroke-dasharray="5.51474 1.37869 0.861679 1.37869" fill="none" transform="matrix(1.00153 0 0 1 142.96 0.625198)"/><path d="M379.131 366.071 275.045 451.226" stroke="#FF0000" stroke-width="0.861679" stroke-linejoin="round" stroke-dasharray="5.51474 1.37869 0.861679 1.37869" fill="none" transform="matrix(1.00153 0 0 1 142.96 0.625198)"/><path d="M407.675 507.629 487.941 521.782" stroke="#000000" stroke-width="1.0771" stroke-linejoin="round" stroke-dasharray="6.89343 1.72336 1.0771 1.72336" fill="none" transform="matrix(1.00153 0 0 1 142.96 0.625198)"/><path d="M408.295 500.553 489.799 500.553" stroke="#0000FF" stroke-width="1.0771" stroke-linejoin="round" stroke-dasharray="6.89343 1.72336 1.0771 1.72336" fill="none" transform="matrix(1.00153 0 0 1 142.96 0.625198)"/><path d="M650.036 500.447 576.682 500.447" stroke="#0000FF" stroke-width="1.0771" stroke-linejoin="round" stroke-dasharray="6.89343 1.72336 1.0771 1.72336" fill="none" transform="matrix(1.00153 0 0 1 142.96 0.625198)"/><path d="M484.302 249.058 508.319 455.501" stroke="#008000" stroke-width="1.0771" stroke-linejoin="round" stroke-dasharray="6.89343 1.72336 1.0771 1.72336" fill="none" transform="matrix(1.00153 0 0 1 142.96 0.625198)"/><path d="M508.319 455.501 630.576 455.501" stroke="#0000FF" stroke-width="1.0771" stroke-linejoin="round" stroke-dasharray="6.89343 1.72336 1.0771 1.72336" fill="none" transform="matrix(1.00153 0 0 1 142.96 0.625198)"/><path d="M347.167 565.756 314.565 565.756" stroke="#000000" stroke-width="1.61565" stroke-linecap="square" stroke-linejoin="round" fill="none" transform="matrix(1.00153 0 0 1 142.96 0.625198)"/><path d="M314.565 549.455 314.565 582.057" stroke="#000000" stroke-width="1.61565" stroke-linecap="square" stroke-linejoin="round" fill="none" transform="matrix(1.00153 0 0 1 142.96 0.625198)"/><path d="M314.565 549.455 306.415 557.605" stroke="#000000" stroke-width="1.61565" stroke-linecap="square" stroke-linejoin="round" fill="none" transform="matrix(1.00153 0 0 1 142.96 0.625198)"/><path d="M314.565 557.605 306.415 565.756" stroke="#000000" stroke-width="1.61565" stroke-linecap="square" stroke-linejoin="round" fill="none" transform="matrix(1.00153 0 0 1 142.96 0.625198)"/><path d="M314.565 565.756 306.415 573.906" stroke="#000000" stroke-width="1.61565" stroke-linecap="square" stroke-linejoin="round" fill="none" transform="matrix(1.00153 0 0 1 142.96 0.625198)"/><path d="M314.565 573.906 306.415 582.057" stroke="#000000" stroke-width="1.61565" stroke-linecap="square" stroke-linejoin="round" fill="none" transform="matrix(1.00153 0 0 1 142.96 0.625198)"/><path d="M314.565 582.057 306.415 590.207" stroke="#000000" stroke-width="1.61565" stroke-linecap="square" stroke-linejoin="round" fill="none" transform="matrix(1.00153 0 0 1 142.96 0.625198)"/><path d="M658.186 508.597 658.186 541.199" stroke="#000000" stroke-width="1.61565" stroke-linecap="square" stroke-linejoin="round" fill="none" transform="matrix(1.00153 0 0 1 142.96 0.625198)"/><path d="M674.487 541.199 641.885 541.199" stroke="#000000" stroke-width="1.61565" stroke-linecap="square" stroke-linejoin="round" fill="none" transform="matrix(1.00153 0 0 1 142.96 0.625198)"/><path d="M674.487 541.199 666.336 549.349" stroke="#000000" stroke-width="1.61565" stroke-linecap="square" stroke-linejoin="round" fill="none" transform="matrix(1.00153 0 0 1 142.96 0.625198)"/><path d="M666.336 541.199 658.186 549.349" stroke="#000000" stroke-width="1.61565" stroke-linecap="square" stroke-linejoin="round" fill="none" transform="matrix(1.00153 0 0 1 142.96 0.625198)"/><path d="M658.186 541.199 650.036 549.349" stroke="#000000" stroke-width="1.61565" stroke-linecap="square" stroke-linejoin="round" fill="none" transform="matrix(1.00153 0 0 1 142.96 0.625198)"/><path d="M650.036 541.199 641.885 549.349" stroke="#000000" stroke-width="1.61565" stroke-linecap="square" stroke-linejoin="round" fill="none" transform="matrix(1.00153 0 0 1 142.96 0.625198)"/><path d="M641.885 541.199 633.735 549.349" stroke="#000000" stroke-width="1.61565" stroke-linecap="square" stroke-linejoin="round" fill="none" transform="matrix(1.00153 0 0 1 142.96 0.625198)"/><path d="M491.51 240.962 524.112 240.962" stroke="#000000" stroke-width="1.61565" stroke-linecap="square" stroke-linejoin="round" fill="none" transform="matrix(1.00153 0 0 1 142.96 0.625198)"/><path d="M524.112 224.661 524.112 257.263" stroke="#000000" stroke-width="1.61565" stroke-linecap="square" stroke-linejoin="round" fill="none" transform="matrix(1.00153 0 0 1 142.96 0.625198)"/><path d="M524.112 224.661 532.262 232.812" stroke="#000000" stroke-width="1.61565" stroke-linecap="square" stroke-linejoin="round" fill="none" transform="matrix(1.00153 0 0 1 142.96 0.625198)"/><path d="M524.112 232.812 532.262 240.962" stroke="#000000" stroke-width="1.61565" stroke-linecap="square" stroke-linejoin="round" fill="none" transform="matrix(1.00153 0 0 1 142.96 0.625198)"/><path d="M524.112 240.962 532.262 249.113" stroke="#000000" stroke-width="1.61565" stroke-linecap="square" stroke-linejoin="round" fill="none" transform="matrix(1.00153 0 0 1 142.96 0.625198)"/><path d="M524.112 249.113 532.262 257.263" stroke="#000000" stroke-width="1.61565" stroke-linecap="square" stroke-linejoin="round" fill="none" transform="matrix(1.00153 0 0 1 142.96 0.625198)"/><path d="M524.112 257.263 532.262 265.413" stroke="#000000" stroke-width="1.61565" stroke-linecap="square" stroke-linejoin="round" fill="none" transform="matrix(1.00153 0 0 1 142.96 0.625198)"/><path d="M367.543 639.82 367.543 86.2678" stroke="#000000" stroke-width="0.861679" stroke-linecap="square" fill="none" transform="matrix(1.00153 0 0 1 142.96 0.625198)"/><path d="M251.676 500.553 765.794 500.553" stroke="#000000" stroke-width="0.861679" stroke-linecap="square" fill="none" transform="matrix(1.00153 0 0 1 142.96 0.625198)"/><path d="M5.09333 8.55889C4.16702 8.55889 3.43123 8.21355 2.88595 7.52286 2.34202 6.83352 2.07005 5.89307 2.07005 4.70153 2.07005 3.51538 2.34202 2.57696 2.88595 1.88627 3.43123 1.19693 4.16702 0.852254 5.09333 0.852254 6.01829 0.852254 6.75139 1.19693 7.29263 1.88627 7.83387 2.57696 8.10449 3.51538 8.10449 4.70153 8.10449 5.89307 7.83387 6.83352 7.29263 7.52286 6.75139 8.21355 6.01829 8.55889 5.09333 8.55889ZM5.09333 9.59291C6.41412 9.59291 7.46968 9.14995 8.26 8.26404 9.05166 7.37812 9.4475 6.19062 9.4475 4.70153 9.4475 3.21648 9.05166 2.031 8.26 1.14509 7.46968 0.259177 6.41412-0.18378 5.09333-0.18378 3.7685-0.18378 2.7089 0.25783 1.91454 1.14105 1.12153 2.02562 0.725022 3.21245 0.725022 4.70153 0.725022 6.19062 1.12153 7.37812 1.91454 8.26404 2.7089 9.14995 3.7685 9.59291 5.09333 9.59291Z" transform="matrix(1.00153 0 0 -1 495.53 493.423)"/><path d="M7.79348 9.11427 7.54911 7.87022C7.12366 8.09776 6.70157 8.26942 6.28285 8.38521 5.86413 8.501 5.45887 8.55889 5.06707 8.55889 4.30637 8.55889 3.70051 8.39261 3.24947 8.06006 2.79978 7.72751 2.57494 7.28522 2.57494 6.73321 2.57494 6.43028 2.65774 6.19803 2.82334 6.03646 2.99029 5.8749 3.41844 5.70122 4.10778 5.51542L4.8732 5.3276C5.73488 5.1041 6.33401 4.82069 6.6706 4.47736 7.0072 4.13538 7.17549 3.65473 7.17549 3.0354 7.17549 2.08486 6.80188 1.31069 6.05464 0.712904 5.30875 0.115115 4.3259-0.18378 3.10608-0.18378 2.60523-0.18378 2.10236-0.133964 1.59747-0.0343325 1.09258 0.0639527 0.585672 0.214073 0.0767433 0.416029L0.335247 1.72874C0.802438 1.43927 1.2703 1.22049 1.73884 1.07239 2.20738 0.925631 2.67524 0.852254 3.14243 0.852254 3.93814 0.852254 4.57565 1.02863 5.05496 1.38138 5.53427 1.73547 5.77392 2.19661 5.77392 2.76478 5.77392 3.14311 5.67833 3.42988 5.48714 3.62511 5.29596 3.82168 4.88464 3.9994 4.25319 4.15827L3.4898 4.35417C2.6187 4.58171 2.02427 4.84358 1.70653 5.13978 1.38878 5.43733 1.22991 5.85336 1.22991 6.38787 1.22991 7.32494 1.59074 8.09305 2.3124 8.69218 3.03405 9.29267 3.97382 9.59291 5.1317 9.59291 5.58139 9.59291 6.02704 9.55252 6.46865 9.47173 6.91026 9.3923 7.35187 9.27314 7.79348 9.11427Z" transform="matrix(1.00153 0 0 -1 518.831 516.587)"/><path d="M2.87545 6.00819C2.41647 6.00819 2.07106 5.782 1.83921 5.32962 1.60831 4.87818 1.49286 4.19866 1.49286 3.29107 1.49286 2.38725 1.60831 1.70915 1.83921 1.25677 2.07106 0.80439 2.41647 0.5782 2.87545 0.5782 3.3382 0.5782 3.68502 0.80439 3.91593 1.25677 4.14777 1.70915 4.26369 2.38725 4.26369 3.29107 4.26369 4.19866 4.14777 4.87818 3.91593 5.32962 3.68502 5.782 3.3382 6.00819 2.87545 6.00819ZM2.87545 6.71503C3.61528 6.71503 4.18029 6.4224 4.57046 5.83713 4.96064 5.25281 5.15573 4.40412 5.15573 3.29107 5.15573 2.18085 4.96064 1.33311 4.57046 0.747843 4.18029 0.163517 3.61528-0.128646 2.87545-0.128646 2.13656-0.128646 1.57203 0.163517 1.18185 0.747843 0.791667 1.33311 0.596578 2.18085 0.596578 3.29107 0.596578 4.40412 0.791667 5.25281 1.18185 5.83713 1.57203 6.4224 2.13656 6.71503 2.87545 6.71503Z" transform="matrix(1.00153 0 0 -1 527.048 518.708)"/><path d="M2.18314 9.42326 5.44069 9.42326C6.32391 9.42326 6.98431 9.25901 7.42188 8.93049 7.85945 8.60198 8.07824 8.10786 8.07824 7.44813 8.07824 6.84227 7.88975 6.3192 7.51276 5.87894 7.13712 5.43867 6.64435 5.17276 6.03444 5.08121 6.55549 4.96273 6.94661 4.73721 7.20781 4.40466 7.469 4.0721 7.5996 3.62847 7.5996 3.07377 7.5996 2.12727 7.24887 1.37801 6.54741 0.826 5.8473 0.275333 4.88935 0 3.67358 0L0.347364 0 2.18314 9.42326ZM2.49214 4.49958 1.82366 1.04815 3.87553 1.04815C4.64566 1.04815 5.23874 1.22453 5.65477 1.57728 6.0708 1.93137 6.27881 2.4302 6.27881 3.07377 6.27881 3.57058 6.14081 3.93208 5.8648 4.15827 5.59014 4.38581 5.14786 4.49958 4.53795 4.49958L2.49214 4.49958ZM3.24341 8.37511 2.68803 5.53561 4.58844 5.53561C5.26566 5.53561 5.79479 5.68237 6.17581 5.97588 6.55684 6.27073 6.74735 6.67936 6.74735 7.20175 6.74735 7.6097 6.61877 7.90725 6.36161 8.09439 6.10445 8.28154 5.69448 8.37511 5.1317 8.37511L3.24341 8.37511Z" transform="matrix(1.00153 0 0 -1 652.056 471.624)"/><path d="M2.87545 6.00819C2.41647 6.00819 2.07106 5.782 1.83921 5.32962 1.60831 4.87818 1.49286 4.19866 1.49286 3.29107 1.49286 2.38725 1.60831 1.70915 1.83921 1.25677 2.07106 0.80439 2.41647 0.5782 2.87545 0.5782 3.3382 0.5782 3.68502 0.80439 3.91593 1.25677 4.14777 1.70915 4.26369 2.38725 4.26369 3.29107 4.26369 4.19866 4.14777 4.87818 3.91593 5.32962 3.68502 5.782 3.3382 6.00819 2.87545 6.00819ZM2.87545 6.71503C3.61528 6.71503 4.18029 6.4224 4.57046 5.83713 4.96064 5.25281 5.15573 4.40412 5.15573 3.29107 5.15573 2.18085 4.96064 1.33311 4.57046 0.747843 4.18029 0.163517 3.61528-0.128646 2.87545-0.128646 2.13656-0.128646 1.57203 0.163517 1.18185 0.747843 0.791667 1.33311 0.596578 2.18085 0.596578 3.29107 0.596578 4.40412 0.791667 5.25281 1.18185 5.83713 1.57203 6.4224 2.13656 6.71503 2.87545 6.71503Z" transform="matrix(1.00153 0 0 -1 660.937 473.745)"/><path d="M1.26828 9.42326 2.54263 9.42326 2.54263 1.07239 7.13106 1.07239 7.13106 0 1.26828 0 1.26828 9.42326Z" transform="matrix(1.00153 0 0 -1 786.617 516.582)"/><path d="M4.75808 9.42326 6.20409 9.42326 7.95302 0 6.62012 0 6.22832 2.41741 1.98725 2.41741 0.656357 0-0.68867 0 4.75808 9.42326ZM5.21854 8.1671 2.57494 3.47768 6.03444 3.47768 5.21854 8.1671Z" transform="matrix(1.00153 0 0 -1 512.314 361.514)"/><path d="M2.87545 6.00819C2.41647 6.00819 2.07106 5.782 1.83921 5.32962 1.60831 4.87818 1.49286 4.19866 1.49286 3.29107 1.49286 2.38725 1.60831 1.70915 1.83921 1.25677 2.07106 0.80439 2.41647 0.5782 2.87545 0.5782 3.3382 0.5782 3.68502 0.80439 3.91593 1.25677 4.14777 1.70915 4.26369 2.38725 4.26369 3.29107 4.26369 4.19866 4.14777 4.87818 3.91593 5.32962 3.68502 5.782 3.3382 6.00819 2.87545 6.00819ZM2.87545 6.71503C3.61528 6.71503 4.18029 6.4224 4.57046 5.83713 4.96064 5.25281 5.15573 4.40412 5.15573 3.29107 5.15573 2.18085 4.96064 1.33311 4.57046 0.747843 4.18029 0.163517 3.61528-0.128646 2.87545-0.128646 2.13656-0.128646 1.57203 0.163517 1.18185 0.747843 0.791667 1.33311 0.596578 2.18085 0.596578 3.29107 0.596578 4.40412 0.791667 5.25281 1.18185 5.83713 1.57203 6.4224 2.13656 6.71503 2.87545 6.71503Z" transform="matrix(1.00153 0 0 -1 521.169 363.634)"/><path d="M8.32462 8.69622 8.32462 7.35322C7.89513 7.75309 7.43736 8.05131 6.95132 8.24788 6.46528 8.4458 5.94895 8.54475 5.40232 8.54475 4.32522 8.54475 3.50057 8.21557 2.92836 7.55719 2.35615 6.89881 2.07005 5.94693 2.07005 4.70153 2.07005 3.46018 2.35615 2.51031 2.92836 1.85194 3.50057 1.19356 4.32522 0.864371 5.40232 0.864371 5.94895 0.864371 6.46528 0.96333 6.95132 1.16125 7.43736 1.35916 7.89513 1.65806 8.32462 2.05793L8.32462 0.725022C7.87897 0.422088 7.4064 0.194551 6.90689 0.0424107 6.40873-0.108383 5.8823-0.18378 5.3276-0.18378 3.90044-0.18378 2.77622 0.252445 1.95493 1.12489 1.13499 1.99869 0.725022 3.1909 0.725022 4.70153 0.725022 6.2162 1.13499 7.40976 1.95493 8.28221 2.77622 9.15601 3.90044 9.59291 5.3276 9.59291 5.89038 9.59291 6.42085 9.51818 6.91901 9.36874 7.41851 9.21929 7.88705 8.99512 8.32462 8.69622Z" transform="matrix(1.00153 0 0 -1 634.825 233.832)"/><path d="M-5.06404 6.84294-5.06404 7.36803-1.16798 7.36803-1.86136 8.18426-1.19995 8.18426-0.279372 7.10548-1.19995 6.0267-1.86136 6.0267-1.16798 6.84294-5.06404 6.84294Z" transform="matrix(1.00153 0 0 -1 566.047 519.885)"/><path d="M2.67255-0.546964C2.22376-1.30093 1.85799-1.7716 1.57526-1.95897 1.29252-2.14634 0.932363-2.24003 0.494792-2.24003L-0.267592-2.24003-0.106027-1.43052 0.452718-1.43052C0.721992-1.43052 0.951437-1.35703 1.14105-1.21005 1.33067-1.06307 1.54272-0.775286 1.77721-0.346691L2.07678 0.21542 0.772481 5.89038 1.79909 5.89038 2.77689 1.37835 5.47974 5.89038 6.49457 5.89038 2.67255-0.546964Z" transform="matrix(1.00153 0 0 -1 557.731 521.095)"/><path d="M1.67735 3.50478C1.40961 3.50478 1.20812 3.37283 1.07287 3.10894 0.938181 2.8456 0.870834 2.44922 0.870834 1.91979 0.870834 1.39256 0.938181 0.997006 1.07287 0.733117 1.20812 0.469228 1.40961 0.337283 1.67735 0.337283 1.94728 0.337283 2.1496 0.469228 2.28429 0.733117 2.41953 0.997006 2.48715 1.39256 2.48715 1.91979 2.48715 2.44922 2.41953 2.8456 2.28429 3.10894 2.1496 3.37283 1.94728 3.50478 1.67735 3.50478ZM1.67735 3.9171C2.10891 3.9171 2.4385 3.7464 2.6661 3.40499 2.89371 3.06414 3.00751 2.56907 3.00751 1.91979 3.00751 1.27217 2.89371 0.777648 2.6661 0.436242 2.4385 0.0953849 2.10891-0.0750435 1.67735-0.0750435 1.24633-0.0750435 0.917015 0.0953849 0.68941 0.436242 0.461806 0.777648 0.348004 1.27217 0.348004 1.91979 0.348004 2.56907 0.461806 3.06414 0.68941 3.40499 0.917015 3.7464 1.24633 3.9171 1.67735 3.9171Z" transform="matrix(1.00153 0 0 -1 562.961 524.099)"/><path d="M-5.06404 6.84294-5.06404 7.36803-1.16798 7.36803-1.86136 8.18426-1.19995 8.18426-0.279372 7.10548-1.19995 6.0267-1.86136 6.0267-1.16798 6.84294-5.06404 6.84294Z" transform="matrix(1.00153 0 0 -1 532.544 453.288)"/><path d="M1.25213 5.89038 5.84831 5.89038 5.67496 5.00682 1.24203 0.772481 4.90248 0.772481 4.74933 0-0.0319764 0 0.141369 0.883557 4.57598 5.1179 1.09898 5.1179 1.25213 5.89038Z" transform="matrix(1.00153 0 0 -1 524.624 454.498)"/><path d="M1.67735 3.50478C1.40961 3.50478 1.20812 3.37283 1.07287 3.10894 0.938181 2.8456 0.870834 2.44922 0.870834 1.91979 0.870834 1.39256 0.938181 0.997006 1.07287 0.733117 1.20812 0.469228 1.40961 0.337283 1.67735 0.337283 1.94728 0.337283 2.1496 0.469228 2.28429 0.733117 2.41953 0.997006 2.48715 1.39256 2.48715 1.91979 2.48715 2.44922 2.41953 2.8456 2.28429 3.10894 2.1496 3.37283 1.94728 3.50478 1.67735 3.50478ZM1.67735 3.9171C2.10891 3.9171 2.4385 3.7464 2.6661 3.40499 2.89371 3.06414 3.00751 2.56907 3.00751 1.91979 3.00751 1.27217 2.89371 0.777648 2.6661 0.436242 2.4385 0.0953849 2.10891-0.0750435 1.67735-0.0750435 1.24633-0.0750435 0.917015 0.0953849 0.68941 0.436242 0.461806 0.777648 0.348004 1.27217 0.348004 1.91979 0.348004 2.56907 0.461806 3.06414 0.68941 3.40499 0.917015 3.7464 1.24633 3.9171 1.67735 3.9171Z" transform="matrix(1.00153 0 0 -1 529.132 457.502)"/><path d="M-5.06404 6.84294-5.06404 7.36803-1.16798 7.36803-1.86136 8.18426-1.19995 8.18426-0.279372 7.10548-1.19995 6.0267-1.86136 6.0267-1.16798 6.84294-5.06404 6.84294Z" fill="#0000FF" transform="matrix(1.00153 0 0 -1 568.825 499.884)"/><path d="M2.67255-0.546964C2.22376-1.30093 1.85799-1.7716 1.57526-1.95897 1.29252-2.14634 0.932363-2.24003 0.494792-2.24003L-0.267592-2.24003-0.106027-1.43052 0.452718-1.43052C0.721992-1.43052 0.951437-1.35703 1.14105-1.21005 1.33067-1.06307 1.54272-0.775286 1.77721-0.346691L2.07678 0.21542 0.772481 5.89038 1.79909 5.89038 2.77689 1.37835 5.47974 5.89038 6.49457 5.89038 2.67255-0.546964Z" fill="#0000FF" transform="matrix(1.00153 0 0 -1 560.508 501.094)"/><path d="M0.654775 0.437891 1.50499 0.437891 1.50499 3.37366 0.579731 3.18811 0.579731 3.66229 1.50004 3.84783 2.0204 3.84783 2.0204 0.437891 2.87062 0.437891 2.87062 0 0.654775 0 0.654775 0.437891Z" fill="#0000FF" transform="matrix(1.00153 0 0 -1 565.739 504.098)"/><path d="M-5.06404 6.84294-5.06404 7.36803-1.16798 7.36803-1.86136 8.18426-1.19995 8.18426-0.279372 7.10548-1.19995 6.0267-1.86136 6.0267-1.16798 6.84294-5.06404 6.84294Z" fill="#0000FF" transform="matrix(1.00153 0 0 -1 506.039 452.669)"/><path d="M1.25213 5.89038 5.84831 5.89038 5.67496 5.00682 1.24203 0.772481 4.90248 0.772481 4.74933 0-0.0319764 0 0.141369 0.883557 4.57598 5.1179 1.09898 5.1179 1.25213 5.89038Z" fill="#0000FF" transform="matrix(1.00153 0 0 -1 498.119 453.879)"/><path d="M0.654775 0.437891 1.50499 0.437891 1.50499 3.37366 0.579731 3.18811 0.579731 3.66229 1.50004 3.84783 2.0204 3.84783 2.0204 0.437891 2.87062 0.437891 2.87062 0 0.654775 0 0.654775 0.437891Z" fill="#0000FF" transform="matrix(1.00153 0 0 -1 502.628 456.883)"/><path d="M-5.06404 6.84294-5.06404 7.36803-1.16798 7.36803-1.86136 8.18426-1.19995 8.18426-0.279372 7.10548-1.19995 6.0267-1.86136 6.0267-1.16798 6.84294-5.06404 6.84294Z" fill="#FF0000" transform="matrix(1.00153 0 0 -1 853.713 510.996)"/><path d="M2.67255-0.546964C2.22376-1.30093 1.85799-1.7716 1.57526-1.95897 1.29252-2.14634 0.932363-2.24003 0.494792-2.24003L-0.267592-2.24003-0.106027-1.43052 0.452718-1.43052C0.721992-1.43052 0.951437-1.35703 1.14105-1.21005 1.33067-1.06307 1.54272-0.775286 1.77721-0.346691L2.07678 0.21542 0.772481 5.89038 1.79909 5.89038 2.77689 1.37835 5.47974 5.89038 6.49457 5.89038 2.67255-0.546964Z" fill="#FF0000" transform="matrix(1.00153 0 0 -1 845.397 512.206)"/><path d="M1.01267 0.437891 2.82939 0.437891 2.82939 0 0.386762 0 0.386762 0.437891C0.58413 0.642405 0.853241 0.91674 1.1941 1.2609 1.5355 1.6056 1.74991 1.82798 1.83733 1.92804 2.00391 2.11496 2.12018 2.27329 2.18616 2.40304 2.25268 2.53279 2.28594 2.66033 2.28594 2.78568 2.28594 2.99019 2.21419 3.15677 2.0707 3.28542 1.92722 3.41461 1.74029 3.47921 1.50994 3.47921 1.34666 3.47921 1.17431 3.4509 0.992883 3.39427 0.812009 3.33765 0.61849 3.25161 0.412327 3.13616L0.412327 3.66229C0.621789 3.7464 0.817506 3.8099 0.99948 3.85278 1.182 3.89566 1.34886 3.9171 1.50004 3.9171 1.89863 3.9171 2.21639 3.81732 2.45334 3.61775 2.69029 3.41874 2.80877 3.15265 2.80877 2.81949 2.80877 2.66116 2.77908 2.51107 2.71971 2.36923 2.66088 2.22794 2.55313 2.06108 2.39644 1.86866 2.35356 1.81864 2.21694 1.6746 1.98659 1.43655 1.75679 1.1985 1.43215 0.865611 1.01267 0.437891Z" fill="#FF0000" transform="matrix(1.00153 0 0 -1 850.627 515.21)"/><path d="M-5.06404 6.84294-5.06404 7.36803-1.16798 7.36803-1.86136 8.18426-1.19995 8.18426-0.279372 7.10548-1.19995 6.0267-1.86136 6.0267-1.16798 6.84294-5.06404 6.84294Z" fill="#FF0000" transform="matrix(1.00153 0 0 -1 834.251 456.598)"/><path d="M1.25213 5.89038 5.84831 5.89038 5.67496 5.00682 1.24203 0.772481 4.90248 0.772481 4.74933 0-0.0319764 0 0.141369 0.883557 4.57598 5.1179 1.09898 5.1179 1.25213 5.89038Z" fill="#FF0000" transform="matrix(1.00153 0 0 -1 826.331 457.808)"/><path d="M1.01267 0.437891 2.82939 0.437891 2.82939 0 0.386762 0 0.386762 0.437891C0.58413 0.642405 0.853241 0.91674 1.1941 1.2609 1.5355 1.6056 1.74991 1.82798 1.83733 1.92804 2.00391 2.11496 2.12018 2.27329 2.18616 2.40304 2.25268 2.53279 2.28594 2.66033 2.28594 2.78568 2.28594 2.99019 2.21419 3.15677 2.0707 3.28542 1.92722 3.41461 1.74029 3.47921 1.50994 3.47921 1.34666 3.47921 1.17431 3.4509 0.992883 3.39427 0.812009 3.33765 0.61849 3.25161 0.412327 3.13616L0.412327 3.66229C0.621789 3.7464 0.817506 3.8099 0.99948 3.85278 1.182 3.89566 1.34886 3.9171 1.50004 3.9171 1.89863 3.9171 2.21639 3.81732 2.45334 3.61775 2.69029 3.41874 2.80877 3.15265 2.80877 2.81949 2.80877 2.66116 2.77908 2.51107 2.71971 2.36923 2.66088 2.22794 2.55313 2.06108 2.39644 1.86866 2.35356 1.81864 2.21694 1.6746 1.98659 1.43655 1.75679 1.1985 1.43215 0.865611 1.01267 0.437891Z" fill="#FF0000" transform="matrix(1.00153 0 0 -1 830.84 460.812)"/><path d="M-5.06404 6.84294-5.06404 7.36803-1.16798 7.36803-1.86136 8.18426-1.19995 8.18426-0.279372 7.10548-1.19995 6.0267-1.86136 6.0267-1.16798 6.84294-5.06404 6.84294Z" fill="#008000" transform="matrix(1.00153 0 0 -1 630.658 193.351)"/><path d="M2.67255-0.546964C2.22376-1.30093 1.85799-1.7716 1.57526-1.95897 1.29252-2.14634 0.932363-2.24003 0.494792-2.24003L-0.267592-2.24003-0.106027-1.43052 0.452718-1.43052C0.721992-1.43052 0.951437-1.35703 1.14105-1.21005 1.33067-1.06307 1.54272-0.775286 1.77721-0.346691L2.07678 0.21542 0.772481 5.89038 1.79909 5.89038 2.77689 1.37835 5.47974 5.89038 6.49457 5.89038 2.67255-0.546964Z" fill="#008000" transform="matrix(1.00153 0 0 -1 622.342 194.562)"/><path d="M2.14162 2.07483C2.39067 2.0215 2.58501 1.91045 2.72465 1.74167 2.86485 1.57344 2.93494 1.36563 2.93494 1.11823 2.93494 0.738889 2.80437 0.445038 2.54323 0.236676 2.28209 0.0288629 1.911-0.0750435 1.42995-0.0750435 1.26887-0.0750435 1.10284-0.0591002 0.931858-0.0272136 0.76088 0.00467304 0.584404 0.0525029 0.402431 0.116276L0.402431 0.61849C0.54647 0.534375 0.704254 0.470877 0.875782 0.427995 1.04786 0.385113 1.22763 0.363672 1.41511 0.363672 1.74112 0.363672 1.98961 0.427995 2.16059 0.556641 2.33157 0.685287 2.41706 0.872483 2.41706 1.11823 2.41706 1.34528 2.33762 1.52259 2.17873 1.65013 2.01985 1.77823 1.79884 1.84228 1.51571 1.84228L1.0671 1.84228 1.0671 2.27027 1.53633 2.27027C1.79197 2.27027 1.98769 2.3214 2.12348 2.42366 2.25928 2.52591 2.32717 2.67325 2.32717 2.86567 2.32717 3.06304 2.25708 3.2145 2.11689 3.32005 1.97724 3.42616 1.77685 3.47921 1.51571 3.47921 1.37277 3.47921 1.21966 3.46354 1.05638 3.43221 0.8931 3.40142 0.7136 3.35359 0.517882 3.28872L0.517882 3.75217C0.715799 3.80715 0.901071 3.84838 1.0737 3.87587 1.24633 3.90336 1.40906 3.9171 1.56189 3.9171 1.95718 3.9171 2.26972 3.82722 2.49952 3.64744 2.72988 3.46822 2.84505 3.22577 2.84505 2.9201 2.84505 2.70679 2.78403 2.52674 2.66198 2.37995 2.53993 2.23316 2.36648 2.13145 2.14162 2.07483Z" fill="#008000" transform="matrix(1.00153 0 0 -1 627.572 197.566)"/><path d="M-5.06404 6.84294-5.06404 7.36803-1.16798 7.36803-1.86136 8.18426-1.19995 8.18426-0.279372 7.10548-1.19995 6.0267-1.86136 6.0267-1.16798 6.84294-5.06404 6.84294Z" fill="#008000" transform="matrix(1.00153 0 0 -1 581.493 232.077)"/><path d="M1.25213 5.89038 5.84831 5.89038 5.67496 5.00682 1.24203 0.772481 4.90248 0.772481 4.74933 0-0.0319764 0 0.141369 0.883557 4.57598 5.1179 1.09898 5.1179 1.25213 5.89038Z" fill="#008000" transform="matrix(1.00153 0 0 -1 573.572 233.287)"/><path d="M2.14162 2.07483C2.39067 2.0215 2.58501 1.91045 2.72465 1.74167 2.86485 1.57344 2.93494 1.36563 2.93494 1.11823 2.93494 0.738889 2.80437 0.445038 2.54323 0.236676 2.28209 0.0288629 1.911-0.0750435 1.42995-0.0750435 1.26887-0.0750435 1.10284-0.0591002 0.931858-0.0272136 0.76088 0.00467304 0.584404 0.0525029 0.402431 0.116276L0.402431 0.61849C0.54647 0.534375 0.704254 0.470877 0.875782 0.427995 1.04786 0.385113 1.22763 0.363672 1.41511 0.363672 1.74112 0.363672 1.98961 0.427995 2.16059 0.556641 2.33157 0.685287 2.41706 0.872483 2.41706 1.11823 2.41706 1.34528 2.33762 1.52259 2.17873 1.65013 2.01985 1.77823 1.79884 1.84228 1.51571 1.84228L1.0671 1.84228 1.0671 2.27027 1.53633 2.27027C1.79197 2.27027 1.98769 2.3214 2.12348 2.42366 2.25928 2.52591 2.32717 2.67325 2.32717 2.86567 2.32717 3.06304 2.25708 3.2145 2.11689 3.32005 1.97724 3.42616 1.77685 3.47921 1.51571 3.47921 1.37277 3.47921 1.21966 3.46354 1.05638 3.43221 0.8931 3.40142 0.7136 3.35359 0.517882 3.28872L0.517882 3.75217C0.715799 3.80715 0.901071 3.84838 1.0737 3.87587 1.24633 3.90336 1.40906 3.9171 1.56189 3.9171 1.95718 3.9171 2.26972 3.82722 2.49952 3.64744 2.72988 3.46822 2.84505 3.22577 2.84505 2.9201 2.84505 2.70679 2.78403 2.52674 2.66198 2.37995 2.53993 2.23316 2.36648 2.13145 2.14162 2.07483Z" fill="#008000" transform="matrix(1.00153 0 0 -1 578.081 236.291)"/></g></svg>