<?xml version="1.0" encoding="utf-8" standalone="no"?>
<!DOCTYPE svg PUBLIC "-//W3C//DTD SVG 1.1//EN"
  "http://www.w3.org/Graphics/SVG/1.1/DTD/svg11.dtd">
<svg xmlns:xlink="http://www.w3.org/1999/xlink" width="921.6pt" height="667.44pt" viewBox="0 0 921.6 667.44" xmlns="http://www.w3.org/2000/svg" version="1.1">
 <metadata>
  <rdf:RDF xmlns:dc="http://purl.org/dc/elements/1.1/" xmlns:cc="http://creativecommons.org/ns#" xmlns:rdf="http://www.w3.org/1999/02/22-rdf-syntax-ns#">
   <cc:Work>
    <dc:type rdf:resource="http://purl.org/dc/dcmitype/StillImage"/>
    <dc:date>2024-06-21T11:18:29.794997</dc:date>
    <dc:format>image/svg+xml</dc:format>
    <dc:creator>
     <cc:Agent>
      <dc:title>Matplotlib v3.8.3, https://matplotlib.org/</dc:title>
     </cc:Agent>
    </dc:creator>
   </cc:Work>
  </rdf:RDF>
 </metadata>
 <defs>
  <style type="text/css">*{stroke-linejoin: round; stroke-linecap: butt}</style>
 </defs>
 <g id="figure_1">
  <g id="patch_1">
   <path d="M 0 667.44 
L 921.6 667.44 
L 921.6 0 
L 0 0 
z
" style="fill: #ffffff"/>
  </g>
  <g id="axes_1">
   <g id="patch_2">
    <path d="M 233.660791 594.0216 
L 710.979209 594.0216 
L 710.979209 80.0928 
L 233.660791 80.0928 
z
" style="fill: #ffffff"/>
   </g>
   <g id="patch_3">
    <path d="M 448.7611 231.281112 
C 450.767892 231.281112 452.692762 230.483805 454.111779 229.064788 
C 455.530795 227.645772 456.328103 225.720902 456.328103 223.714109 
C 456.328103 221.707316 455.530795 219.782447 454.111779 218.36343 
C 452.692762 216.944413 450.767892 216.147106 448.7611 216.147106 
C 446.754307 216.147106 444.829437 216.944413 443.41042 218.36343 
C 441.991404 219.782447 441.194096 221.707316 441.194096 223.714109 
C 441.194096 225.720902 441.991404 227.645772 443.41042 229.064788 
C 444.829437 230.483805 446.754307 231.281112 448.7611 231.281112 
L 448.7611 231.281112 
z
" clip-path="url(#paaca319d6f)" style="fill: none; stroke: #008000; stroke-width: 1.5; stroke-linejoin: miter"/>
   </g>
   <g id="patch_4">
    <path d="M 381.847622 471.884437 
L 378.297103 472.410945 
L 378.490917 471.311769 
L 341.230701 464.741787 
L 341.237271 464.704527 
L 378.497487 471.274508 
L 378.691302 470.175332 
z
" clip-path="url(#paaca319d6f)" style="stroke: #000000; stroke-linejoin: miter"/>
   </g>
   <g id="patch_5">
    <path d="M 348.395266 424.109521 
L 348.921774 427.66004 
L 347.822597 427.466226 
L 341.252616 464.726442 
L 341.215356 464.719872 
L 347.785337 427.459656 
L 346.686161 427.265841 
z
" clip-path="url(#paaca319d6f)" style="stroke: #000000; stroke-linejoin: miter"/>
   </g>
   <g id="patch_6">
    <path d="M 382.474153 464.723157 
L 379.069001 465.858207 
L 379.069001 464.742074 
L 341.233986 464.742074 
L 341.233986 464.704239 
L 379.069001 464.704239 
L 379.069001 463.588107 
z
" clip-path="url(#paaca319d6f)" style="fill: #0000ff; stroke: #0000ff; stroke-linejoin: miter"/>
   </g>
   <g id="patch_7">
    <path d="M 341.233986 423.48299 
L 342.369036 426.888142 
L 341.252903 426.888142 
L 341.252903 464.723157 
L 341.215068 464.723157 
L 341.215068 426.888142 
L 340.098935 426.888142 
z
" clip-path="url(#paaca319d6f)" style="fill: #0000ff; stroke: #0000ff; stroke-linejoin: miter"/>
   </g>
   <g id="patch_8">
    <path d="M 655.047684 485.800118 
L 651.487256 485.345429 
L 651.971498 484.339814 
L 617.88284 467.924828 
L 617.899255 467.890739 
L 651.987913 484.305725 
L 652.472155 483.30011 
z
" clip-path="url(#paaca319d6f)" style="fill: #ff0000; stroke: #ff0000; stroke-linejoin: miter"/>
   </g>
   <g id="patch_9">
    <path d="M 632.248648 420.650417 
L 631.793959 424.210846 
L 630.788343 423.726604 
L 614.373357 457.815262 
L 614.339268 457.798847 
L 630.754255 423.710189 
L 629.748639 423.225947 
z
" clip-path="url(#paaca319d6f)" style="fill: #ff0000; stroke: #ff0000; stroke-linejoin: miter"/>
   </g>
   <g id="patch_10">
    <path d="M 611.073315 472.191789 
C 613.080108 472.191789 615.004978 471.394482 616.423995 469.975465 
C 617.843011 468.556448 618.640319 466.631579 618.640319 464.624786 
C 618.640319 462.617993 617.843011 460.693123 616.423995 459.274107 
C 615.004978 457.85509 613.080108 457.057783 611.073315 457.057783 
C 609.066523 457.057783 607.141653 457.85509 605.722636 459.274107 
C 604.30362 460.693123 603.506312 462.617993 603.506312 464.624786 
C 603.506312 466.631579 604.30362 468.556448 605.722636 469.975465 
C 607.141653 471.394482 609.066523 472.191789 611.073315 472.191789 
L 611.073315 472.191789 
z
" clip-path="url(#paaca319d6f)" style="fill: none; stroke: #ff0000; stroke-width: 1.5; stroke-linejoin: miter"/>
   </g>
   <g id="PathCollection_1">
    <defs>
     <path id="m94b74564c9" d="M -3 0 
L 3 0 
M 0 3 
L 0 -3 
" style="stroke: #000000; stroke-width: 1.5"/>
    </defs>
    <g clip-path="url(#paaca319d6f)">
     <use xlink:href="#m94b74564c9" x="351.992696" y="339.867606" style="stroke: #000000; stroke-width: 1.5"/>
    </g>
   </g>
   <g id="patch_11">
    <path d="M 518.312675 358.383521 
C 506.989171 350.242985 493.719474 345.225454 479.842764 343.837295 
C 465.966054 342.449137 451.965393 344.738675 439.253731 350.47485 
" clip-path="url(#paaca319d6f)" style="fill: none; stroke: #ff0000; stroke-width: 1.5; stroke-linejoin: miter"/>
   </g>
   <g id="patch_12">
    <path d="M 255.357082 418.927499 
C 269.233959 435.889329 287.335103 448.902351 307.833746 456.653289 
C 328.332389 464.404227 350.51495 466.623262 372.142765 463.086449 
" clip-path="url(#paaca319d6f)" style="fill: none; stroke: #ff0000; stroke-width: 1.5; stroke-linejoin: miter"/>
   </g>
   <g id="patch_13">
    <path d="M 443.12088 175.23393 
L 444.64183 178.4851 
L 443.533175 178.614082 
L 447.905438 216.195616 
L 447.867856 216.199988 
L 443.495593 178.618454 
L 442.386938 178.747436 
z
" clip-path="url(#paaca319d6f)" style="fill: #008000; stroke: #008000; stroke-linejoin: miter"/>
   </g>
   <g id="patch_14">
    <path d="M 400.280921 229.354328 
L 403.532091 227.833379 
L 403.661072 228.942034 
L 441.242607 224.569771 
L 441.246979 224.607352 
L 403.665445 228.979615 
L 403.794426 230.088271 
z
" clip-path="url(#paaca319d6f)" style="fill: #008000; stroke: #008000; stroke-linejoin: miter"/>
   </g>
   <g id="patch_15">
    <path d="M 448.7611 231.281112 
C 450.767892 231.281112 452.692762 230.483805 454.111779 229.064788 
C 455.530795 227.645772 456.328103 225.720902 456.328103 223.714109 
C 456.328103 221.707316 455.530795 219.782447 454.111779 218.36343 
C 452.692762 216.944413 450.767892 216.147106 448.7611 216.147106 
C 446.754307 216.147106 444.829437 216.944413 443.41042 218.36343 
C 441.991404 219.782447 441.194096 221.707316 441.194096 223.714109 
C 441.194096 225.720902 441.991404 227.645772 443.41042 229.064788 
C 444.829437 230.483805 446.754307 231.281112 448.7611 231.281112 
L 448.7611 231.281112 
z
" clip-path="url(#paaca319d6f)" style="fill: none; stroke: #008000; stroke-width: 1.5; stroke-linejoin: miter"/>
   </g>
   <g id="patch_16">
    <path d="M 434.769858 103.4532 
C 402.886915 107.162485 373.752279 123.4026 353.830494 148.570106 
C 333.908708 173.737612 324.790906 205.822407 328.50019 237.70535 
C 332.209475 269.588294 348.449591 298.72293 373.617097 318.644715 
C 398.784603 338.5665 430.869397 347.684303 462.752341 343.975018 
" clip-path="url(#paaca319d6f)" style="fill: none; stroke: #008000; stroke-width: 1.5; stroke-linejoin: miter"/>
   </g>
   <g id="patch_17">
    <path d="M 462.752341 343.975018 
C 494.635284 340.265733 523.76992 324.025618 543.691705 298.858112 
C 563.613491 273.690606 572.731293 241.605812 569.022009 209.722868 
C 565.312724 177.839924 549.072608 148.705288 523.905102 128.783503 
C 498.737596 108.861718 466.652802 99.743915 434.769858 103.4532 
" clip-path="url(#paaca319d6f)" style="fill: none; stroke-dasharray: 6.4,1.6,1,1.6; stroke-dashoffset: 0; stroke: #008000; stroke-linejoin: miter"/>
   </g>
   <g id="patch_18">
    <path d="M 462.752341 343.975018 
C 526.518228 336.556449 586.262579 316.755177 628.72901 288.96481 
C 671.195441 261.174444 692.992202 227.61457 689.282918 195.731627 
C 685.573633 163.848683 656.654558 136.189127 608.942407 118.890202 
C 561.230255 101.591277 498.535746 96.03463 434.769858 103.4532 
" clip-path="url(#paaca319d6f)" style="fill: none; stroke: #008000; stroke-width: 1.5; stroke-linejoin: miter"/>
   </g>
   <g id="patch_19">
    <path d="M 453.014635 484.433101 
C 453.588065 481.181018 454.019301 477.905459 454.307111 474.615774 
C 454.594921 471.326088 454.739032 468.025409 454.739032 464.723157 
" clip-path="url(#paaca319d6f)" style="fill: none; stroke: #0000ff; stroke-linejoin: miter"/>
   </g>
   <g id="patch_20">
    <path d="M 454.739032 464.723157 
L 456.252433 468.506659 
L 453.225631 468.506659 
z
" clip-path="url(#paaca319d6f)" style="fill: #0000ff; stroke: #0000ff; stroke-linejoin: miter"/>
   </g>
   <g id="patch_21">
    <path d="M 542.895999 431.794813 
C 540.437913 436.89947 538.560887 442.264085 537.300241 447.787715 
C 536.039594 453.311344 535.403285 458.959125 535.403285 464.624786 
" clip-path="url(#paaca319d6f)" style="fill: none; stroke: #ff0000; stroke-linejoin: miter"/>
   </g>
   <g id="patch_22">
    <path d="M 542.895999 431.794813 
L 542.618047 435.860278 
L 539.890954 434.547079 
z
" clip-path="url(#paaca319d6f)" style="fill: #ff0000; stroke: #ff0000; stroke-linejoin: miter"/>
   </g>
   <g id="patch_23">
    <path d="M 585.439139 422.89624 
C 585.439139 406.884095 582.050891 391.051696 575.497597 376.442004 
C 568.944303 361.832311 559.373092 348.77333 547.414467 338.125321 
C 535.455842 327.477313 521.378291 319.479338 506.109171 314.658263 
C 490.840051 309.837189 474.722174 308.301253 458.817304 310.151638 
" clip-path="url(#paaca319d6f)" style="fill: none; stroke: #000000; stroke-linejoin: miter"/>
   </g>
   <g id="patch_24">
    <path d="M 458.817304 310.151638 
L 462.400567 308.21115 
L 462.750348 311.217673 
z
" clip-path="url(#paaca319d6f)" style="stroke: #000000; stroke-linejoin: miter"/>
   </g>
   <g id="patch_25">
    <path d="M 322.316478 555.527194 
L 360.151494 555.527194 
L 360.151494 494.991169 
L 322.316478 494.991169 
L 322.316478 555.527194 
z
" clip-path="url(#paaca319d6f)" style="fill: none; stroke: #000000; stroke-linejoin: miter"/>
   </g>
   <g id="matplotlib.axis_1">
    <g id="xtick_1"/>
    <g id="xtick_2"/>
    <g id="xtick_3"/>
    <g id="xtick_4"/>
    <g id="xtick_5"/>
    <g id="xtick_6"/>
   </g>
   <g id="matplotlib.axis_2">
    <g id="ytick_1"/>
    <g id="ytick_2"/>
    <g id="ytick_3"/>
    <g id="ytick_4"/>
    <g id="ytick_5"/>
    <g id="ytick_6"/>
    <g id="ytick_7"/>
   </g>
   <g id="line2d_1">
    <defs>
     <path id="m613a021a31" d="M -3 0 
L 3 0 
M 0 3 
L 0 -3 
" style="stroke: #000000"/>
    </defs>
    <g clip-path="url(#paaca319d6f)">
     <use xlink:href="#m613a021a31" x="341.233986" y="464.723157" style="stroke: #000000"/>
    </g>
   </g>
   <g id="line2d_2">
    <defs>
     <path id="m2092eb0cea" d="M -3 0 
L 3 0 
M 0 3 
L 0 -3 
" style="stroke: #0000ff"/>
    </defs>
    <g clip-path="url(#paaca319d6f)">
     <use xlink:href="#m2092eb0cea" x="341.233986" y="464.723157" style="fill: #0000ff; stroke: #0000ff"/>
    </g>
   </g>
   <g id="line2d_3">
    <defs>
     <path id="m7916ec4d0a" d="M -3 0 
L 3 0 
M 0 3 
L 0 -3 
" style="stroke: #ff00ff"/>
    </defs>
    <g clip-path="url(#paaca319d6f)">
     <use xlink:href="#m7916ec4d0a" x="471.934093" y="422.89624" style="fill: #ff00ff; stroke: #ff00ff"/>
    </g>
   </g>
   <g id="line2d_4">
    <path d="M 318.532977 464.723157 
L 363.934995 464.723157 
" clip-path="url(#paaca319d6f)" style="fill: none; stroke: #0000ff; stroke-width: 1.5; stroke-linecap: square"/>
   </g>
   <g id="line2d_5">
    <path d="M 341.233986 464.723157 
L 341.233986 570.6612 
" clip-path="url(#paaca319d6f)" style="fill: none; stroke: #0000ff; stroke-width: 1.5; stroke-linecap: square"/>
   </g>
   <g id="line2d_6">
    <path d="M 604.255584 461.341789 
L 351.992696 339.867606 
" clip-path="url(#paaca319d6f)" style="fill: none; stroke: #ff0000; stroke-width: 1.5; stroke-linecap: square"/>
   </g>
   <g id="line2d_7">
    <path d="M 471.934093 422.89624 
L 439.253731 350.47485 
" clip-path="url(#paaca319d6f)" style="fill: none; stroke-dasharray: 5.12,1.28,0.8,1.28; stroke-dashoffset: 0; stroke: #ff0000; stroke-width: 0.8"/>
   </g>
   <g id="line2d_8">
    <path d="M 471.934093 422.89624 
L 518.312675 358.383521 
" clip-path="url(#paaca319d6f)" style="fill: none; stroke-dasharray: 5.12,1.28,0.8,1.28; stroke-dashoffset: 0; stroke: #ff0000; stroke-width: 0.8"/>
   </g>
   <g id="line2d_9">
    <path d="M 351.992696 339.867606 
L 372.142765 463.086449 
" clip-path="url(#paaca319d6f)" style="fill: none; stroke-dasharray: 5.12,1.28,0.8,1.28; stroke-dashoffset: 0; stroke: #ff0000; stroke-width: 0.8"/>
   </g>
   <g id="line2d_10">
    <path d="M 351.992696 339.867606 
L 255.357082 418.927499 
" clip-path="url(#paaca319d6f)" style="fill: none; stroke-dasharray: 5.12,1.28,0.8,1.28; stroke-dashoffset: 0; stroke: #ff0000; stroke-width: 0.8"/>
   </g>
   <g id="line2d_11">
    <path d="M 378.494202 471.293138 
L 453.014635 484.433101 
" clip-path="url(#paaca319d6f)" style="fill: none; stroke-dasharray: 6.4,1.6,1,1.6; stroke-dashoffset: 0; stroke: #000000"/>
   </g>
   <g id="line2d_12">
    <path d="M 379.069001 464.723157 
L 454.739032 464.723157 
" clip-path="url(#paaca319d6f)" style="fill: none; stroke-dasharray: 6.4,1.6,1,1.6; stroke-dashoffset: 0; stroke: #0000ff"/>
   </g>
   <g id="line2d_13">
    <path d="M 603.506312 464.624786 
L 535.403285 464.624786 
" clip-path="url(#paaca319d6f)" style="fill: none; stroke-dasharray: 6.4,1.6,1,1.6; stroke-dashoffset: 0; stroke: #0000ff"/>
   </g>
   <g id="line2d_14">
    <path d="M 449.635552 231.230416 
L 471.934093 422.89624 
" clip-path="url(#paaca319d6f)" style="fill: none; stroke-dasharray: 6.4,1.6,1,1.6; stroke-dashoffset: 0; stroke: #008000"/>
   </g>
   <g id="line2d_15">
    <path d="M 471.934093 422.89624 
L 585.439139 422.89624 
" clip-path="url(#paaca319d6f)" style="fill: none; stroke-dasharray: 6.4,1.6,1,1.6; stroke-dashoffset: 0; stroke: #0000ff"/>
   </g>
   <g id="line2d_16">
    <path d="M 322.316478 525.259182 
L 292.048466 525.259182 
" clip-path="url(#paaca319d6f)" style="fill: none; stroke: #000000; stroke-width: 1.5; stroke-linecap: square"/>
   </g>
   <g id="line2d_17">
    <path d="M 292.048466 510.125175 
L 292.048466 540.393188 
" clip-path="url(#paaca319d6f)" style="fill: none; stroke: #000000; stroke-width: 1.5; stroke-linecap: square"/>
   </g>
   <g id="line2d_18">
    <path d="M 292.048466 510.125175 
L 284.481463 517.692178 
" clip-path="url(#paaca319d6f)" style="fill: none; stroke: #000000; stroke-width: 1.5; stroke-linecap: square"/>
   </g>
   <g id="line2d_19">
    <path d="M 292.048466 517.692178 
L 284.481463 525.259182 
" clip-path="url(#paaca319d6f)" style="fill: none; stroke: #000000; stroke-width: 1.5; stroke-linecap: square"/>
   </g>
   <g id="line2d_20">
    <path d="M 292.048466 525.259182 
L 284.481463 532.826185 
" clip-path="url(#paaca319d6f)" style="fill: none; stroke: #000000; stroke-width: 1.5; stroke-linecap: square"/>
   </g>
   <g id="line2d_21">
    <path d="M 292.048466 532.826185 
L 284.481463 540.393188 
" clip-path="url(#paaca319d6f)" style="fill: none; stroke: #000000; stroke-width: 1.5; stroke-linecap: square"/>
   </g>
   <g id="line2d_22">
    <path d="M 292.048466 540.393188 
L 284.481463 547.960191 
" clip-path="url(#paaca319d6f)" style="fill: none; stroke: #000000; stroke-width: 1.5; stroke-linecap: square"/>
   </g>
   <g id="line2d_23">
    <path d="M 611.073315 472.191789 
L 611.073315 502.459801 
" clip-path="url(#paaca319d6f)" style="fill: none; stroke: #000000; stroke-width: 1.5; stroke-linecap: square"/>
   </g>
   <g id="line2d_24">
    <path d="M 626.207322 502.459801 
L 595.939309 502.459801 
" clip-path="url(#paaca319d6f)" style="fill: none; stroke: #000000; stroke-width: 1.5; stroke-linecap: square"/>
   </g>
   <g id="line2d_25">
    <path d="M 626.207322 502.459801 
L 618.640319 510.026804 
" clip-path="url(#paaca319d6f)" style="fill: none; stroke: #000000; stroke-width: 1.5; stroke-linecap: square"/>
   </g>
   <g id="line2d_26">
    <path d="M 618.640319 502.459801 
L 611.073315 510.026804 
" clip-path="url(#paaca319d6f)" style="fill: none; stroke: #000000; stroke-width: 1.5; stroke-linecap: square"/>
   </g>
   <g id="line2d_27">
    <path d="M 611.073315 502.459801 
L 603.506312 510.026804 
" clip-path="url(#paaca319d6f)" style="fill: none; stroke: #000000; stroke-width: 1.5; stroke-linecap: square"/>
   </g>
   <g id="line2d_28">
    <path d="M 603.506312 502.459801 
L 595.939309 510.026804 
" clip-path="url(#paaca319d6f)" style="fill: none; stroke: #000000; stroke-width: 1.5; stroke-linecap: square"/>
   </g>
   <g id="line2d_29">
    <path d="M 595.939309 502.459801 
L 588.372306 510.026804 
" clip-path="url(#paaca319d6f)" style="fill: none; stroke: #000000; stroke-width: 1.5; stroke-linecap: square"/>
   </g>
   <g id="line2d_30">
    <path d="M 456.328103 223.714109 
L 486.596115 223.714109 
" clip-path="url(#paaca319d6f)" style="fill: none; stroke: #000000; stroke-width: 1.5; stroke-linecap: square"/>
   </g>
   <g id="line2d_31">
    <path d="M 486.596115 208.580103 
L 486.596115 238.848115 
" clip-path="url(#paaca319d6f)" style="fill: none; stroke: #000000; stroke-width: 1.5; stroke-linecap: square"/>
   </g>
   <g id="line2d_32">
    <path d="M 486.596115 208.580103 
L 494.163118 216.147106 
" clip-path="url(#paaca319d6f)" style="fill: none; stroke: #000000; stroke-width: 1.5; stroke-linecap: square"/>
   </g>
   <g id="line2d_33">
    <path d="M 486.596115 216.147106 
L 494.163118 223.714109 
" clip-path="url(#paaca319d6f)" style="fill: none; stroke: #000000; stroke-width: 1.5; stroke-linecap: square"/>
   </g>
   <g id="line2d_34">
    <path d="M 486.596115 223.714109 
L 494.163118 231.281112 
" clip-path="url(#paaca319d6f)" style="fill: none; stroke: #000000; stroke-width: 1.5; stroke-linecap: square"/>
   </g>
   <g id="line2d_35">
    <path d="M 486.596115 231.281112 
L 494.163118 238.848115 
" clip-path="url(#paaca319d6f)" style="fill: none; stroke: #000000; stroke-width: 1.5; stroke-linecap: square"/>
   </g>
   <g id="line2d_36">
    <path d="M 486.596115 238.848115 
L 494.163118 246.415118 
" clip-path="url(#paaca319d6f)" style="fill: none; stroke: #000000; stroke-width: 1.5; stroke-linecap: square"/>
   </g>
   <g id="patch_26">
    <path d="M 341.233986 594.0216 
L 341.233986 80.0928 
" style="fill: none; stroke: #000000; stroke-width: 0.8; stroke-linejoin: miter; stroke-linecap: square"/>
   </g>
   <g id="patch_27">
    <path d="M 710.979209 594.0216 
L 710.979209 80.0928 
" style="fill: none"/>
   </g>
   <g id="patch_28">
    <path d="M 233.660791 464.723157 
L 710.979209 464.723157 
" style="fill: none; stroke: #000000; stroke-width: 0.8; stroke-linejoin: miter; stroke-linecap: square"/>
   </g>
   <g id="patch_29">
    <path d="M 233.660791 80.0928 
L 710.979209 80.0928 
" style="fill: none"/>
   </g>
   <g id="text_1">
    <!-- O -->
    <g transform="translate(326.833986 457.523157) scale(0.12 -0.12)">
     <defs>
      <path id="DejaVuSans-4f" d="M 2522 4238 
Q 1834 4238 1429 3725 
Q 1025 3213 1025 2328 
Q 1025 1447 1429 934 
Q 1834 422 2522 422 
Q 3209 422 3611 934 
Q 4013 1447 4013 2328 
Q 4013 3213 3611 3725 
Q 3209 4238 2522 4238 
z
M 2522 4750 
Q 3503 4750 4090 4092 
Q 4678 3434 4678 2328 
Q 4678 1225 4090 567 
Q 3503 -91 2522 -91 
Q 1538 -91 948 565 
Q 359 1222 359 2328 
Q 359 3434 948 4092 
Q 1538 4750 2522 4750 
z
" transform="scale(0.015625)"/>
     </defs>
     <use xlink:href="#DejaVuSans-4f"/>
    </g>
   </g>
   <g id="text_2">
    <!-- $S_{0}$ -->
    <g transform="translate(348.433986 479.123157) scale(0.12 -0.12)">
     <defs>
      <path id="DejaVuSans-Oblique-53" d="M 3859 4513 
L 3738 3897 
Q 3422 4066 3111 4152 
Q 2800 4238 2509 4238 
Q 1944 4238 1609 3991 
Q 1275 3744 1275 3334 
Q 1275 3109 1398 2989 
Q 1522 2869 2034 2731 
L 2413 2638 
Q 3053 2472 3303 2217 
Q 3553 1963 3553 1503 
Q 3553 797 2998 353 
Q 2444 -91 1538 -91 
Q 1166 -91 791 -17 
Q 416 56 38 206 
L 166 856 
Q 513 641 861 531 
Q 1209 422 1556 422 
Q 2147 422 2503 684 
Q 2859 947 2859 1369 
Q 2859 1650 2717 1795 
Q 2575 1941 2106 2059 
L 1728 2156 
Q 1081 2325 845 2545 
Q 609 2766 609 3163 
Q 609 3859 1145 4304 
Q 1681 4750 2541 4750 
Q 2875 4750 3203 4690 
Q 3531 4631 3859 4513 
z
" transform="scale(0.015625)"/>
      <path id="DejaVuSans-30" d="M 2034 4250 
Q 1547 4250 1301 3770 
Q 1056 3291 1056 2328 
Q 1056 1369 1301 889 
Q 1547 409 2034 409 
Q 2525 409 2770 889 
Q 3016 1369 3016 2328 
Q 3016 3291 2770 3770 
Q 2525 4250 2034 4250 
z
M 2034 4750 
Q 2819 4750 3233 4129 
Q 3647 3509 3647 2328 
Q 3647 1150 3233 529 
Q 2819 -91 2034 -91 
Q 1250 -91 836 529 
Q 422 1150 422 2328 
Q 422 3509 836 4129 
Q 1250 4750 2034 4750 
z
" transform="scale(0.015625)"/>
     </defs>
     <use xlink:href="#DejaVuSans-Oblique-53" transform="translate(0 0.78125)"/>
     <use xlink:href="#DejaVuSans-30" transform="translate(63.476562 -15.625) scale(0.7)"/>
    </g>
   </g>
   <g id="text_3">
    <!-- $B_{0}$ -->
    <g transform="translate(471.934093 437.29624) scale(0.12 -0.12)">
     <defs>
      <path id="DejaVuSans-Oblique-42" d="M 1081 4666 
L 2694 4666 
Q 3350 4666 3675 4422 
Q 4000 4178 4000 3688 
Q 4000 3238 3720 2911 
Q 3441 2584 2988 2516 
Q 3375 2428 3569 2181 
Q 3763 1934 3763 1522 
Q 3763 819 3242 409 
Q 2722 0 1819 0 
L 172 0 
L 1081 4666 
z
M 1234 2228 
L 903 519 
L 1919 519 
Q 2491 519 2800 781 
Q 3109 1044 3109 1522 
Q 3109 1891 2904 2059 
Q 2700 2228 2247 2228 
L 1234 2228 
z
M 1606 4147 
L 1331 2741 
L 2272 2741 
Q 2775 2741 3058 2959 
Q 3341 3178 3341 3566 
Q 3341 3869 3150 4008 
Q 2959 4147 2541 4147 
L 1606 4147 
z
" transform="scale(0.015625)"/>
     </defs>
     <use xlink:href="#DejaVuSans-Oblique-42" transform="translate(0 0.09375)"/>
     <use xlink:href="#DejaVuSans-30" transform="translate(68.603516 -16.3125) scale(0.7)"/>
    </g>
   </g>
   <g id="text_4">
    <!-- L -->
    <g transform="translate(596.673315 479.024786) scale(0.12 -0.12)">
     <defs>
      <path id="DejaVuSans-4c" d="M 628 4666 
L 1259 4666 
L 1259 531 
L 3531 531 
L 3531 0 
L 628 0 
L 628 4666 
z
" transform="scale(0.015625)"/>
     </defs>
     <use xlink:href="#DejaVuSans-4c"/>
    </g>
   </g>
   <g id="text_5">
    <!-- $A_{0}$ -->
    <g transform="translate(342.392696 335.067606) scale(0.12 -0.12)">
     <defs>
      <path id="DejaVuSans-Oblique-41" d="M 2356 4666 
L 3072 4666 
L 3938 0 
L 3278 0 
L 3084 1197 
L 984 1197 
L 325 0 
L -341 0 
L 2356 4666 
z
M 2584 4044 
L 1275 1722 
L 2988 1722 
L 2584 4044 
z
" transform="scale(0.015625)"/>
     </defs>
     <use xlink:href="#DejaVuSans-Oblique-41" transform="translate(0 0.09375)"/>
     <use xlink:href="#DejaVuSans-30" transform="translate(68.408203 -16.3125) scale(0.7)"/>
    </g>
   </g>
   <g id="text_6">
    <!-- C -->
    <g transform="translate(455.9611 216.514109) scale(0.12 -0.12)">
     <defs>
      <path id="DejaVuSans-43" d="M 4122 4306 
L 4122 3641 
Q 3803 3938 3442 4084 
Q 3081 4231 2675 4231 
Q 1875 4231 1450 3742 
Q 1025 3253 1025 2328 
Q 1025 1406 1450 917 
Q 1875 428 2675 428 
Q 3081 428 3442 575 
Q 3803 722 4122 1019 
L 4122 359 
Q 3791 134 3420 21 
Q 3050 -91 2638 -91 
Q 1578 -91 968 557 
Q 359 1206 359 2328 
Q 359 3453 968 4101 
Q 1578 4750 2638 4750 
Q 3056 4750 3426 4639 
Q 3797 4528 4122 4306 
z
" transform="scale(0.015625)"/>
     </defs>
     <use xlink:href="#DejaVuSans-43"/>
    </g>
   </g>
   <g id="text_7">
    <!-- $\vec{y_{\!_{0}}}$ -->
    <g transform="translate(384.494202 483.293138) scale(0.1 -0.1)">
     <defs>
      <path id="DejaVuSans-20d7" d="M -3009 4066 
L -3009 4378 
L -694 4378 
L -1106 4863 
L -713 4863 
L -166 4222 
L -713 3581 
L -1106 3581 
L -694 4066 
L -3009 4066 
z
" transform="scale(0.015625)"/>
      <path id="DejaVuSans-Oblique-79" d="M 1588 -325 
Q 1188 -997 936 -1164 
Q 684 -1331 294 -1331 
L -159 -1331 
L -63 -850 
L 269 -850 
Q 509 -850 678 -719 
Q 847 -588 1056 -206 
L 1234 128 
L 459 3500 
L 1069 3500 
L 1650 819 
L 3256 3500 
L 3859 3500 
L 1588 -325 
z
" transform="scale(0.015625)"/>
     </defs>
     <use xlink:href="#DejaVuSans-20d7" transform="translate(77.092717 12.015625)"/>
     <use xlink:href="#DejaVuSans-Oblique-79" transform="translate(0 0.78125)"/>
     <use xlink:href="#DejaVuSans-30" transform="translate(48.484636 -27.109375) scale(0.49)"/>
    </g>
   </g>
   <g id="text_8">
    <!-- $\vec{z_{\!_{0}}}$ -->
    <g transform="translate(353.803967 421.462941) scale(0.1 -0.1)">
     <defs>
      <path id="DejaVuSans-Oblique-7a" d="M 744 3500 
L 3475 3500 
L 3372 2975 
L 738 459 
L 2913 459 
L 2822 0 
L -19 0 
L 84 525 
L 2719 3041 
L 653 3041 
L 744 3500 
z
" transform="scale(0.015625)"/>
     </defs>
     <use xlink:href="#DejaVuSans-20d7" transform="translate(73.420353 12.015625)"/>
     <use xlink:href="#DejaVuSans-Oblique-7a" transform="translate(0 0.78125)"/>
     <use xlink:href="#DejaVuSans-30" transform="translate(41.795183 -27.109375) scale(0.49)"/>
    </g>
   </g>
   <g id="text_9">
    <!-- $\vec{y_{\!_{1}}}$ -->
    <g style="fill: #0000ff" transform="translate(387.069001 464.723157) scale(0.1 -0.1)">
     <defs>
      <path id="DejaVuSans-31" d="M 794 531 
L 1825 531 
L 1825 4091 
L 703 3866 
L 703 4441 
L 1819 4666 
L 2450 4666 
L 2450 531 
L 3481 531 
L 3481 0 
L 794 0 
L 794 531 
z
" transform="scale(0.015625)"/>
     </defs>
     <use xlink:href="#DejaVuSans-20d7" transform="translate(77.092717 12.015625)"/>
     <use xlink:href="#DejaVuSans-Oblique-79" transform="translate(0 0.78125)"/>
     <use xlink:href="#DejaVuSans-31" transform="translate(48.484636 -27.109375) scale(0.49)"/>
    </g>
   </g>
   <g id="text_10">
    <!-- $\vec{z_{\!_{1}}}$ -->
    <g style="fill: #0000ff" transform="translate(329.233986 420.888142) scale(0.1 -0.1)">
     <use xlink:href="#DejaVuSans-20d7" transform="translate(73.420353 12.015625)"/>
     <use xlink:href="#DejaVuSans-Oblique-7a" transform="translate(0 0.78125)"/>
     <use xlink:href="#DejaVuSans-31" transform="translate(41.795183 -27.109375) scale(0.49)"/>
    </g>
   </g>
   <g id="text_11">
    <!-- $\vec{y_{\!_{2}}}$ -->
    <g style="fill: #ff0000" transform="translate(651.161974 475.039772) scale(0.1 -0.1)">
     <defs>
      <path id="DejaVuSans-32" d="M 1228 531 
L 3431 531 
L 3431 0 
L 469 0 
L 469 531 
Q 828 903 1448 1529 
Q 2069 2156 2228 2338 
Q 2531 2678 2651 2914 
Q 2772 3150 2772 3378 
Q 2772 3750 2511 3984 
Q 2250 4219 1831 4219 
Q 1534 4219 1204 4116 
Q 875 4013 500 3803 
L 500 4441 
Q 881 4594 1212 4672 
Q 1544 4750 1819 4750 
Q 2544 4750 2975 4387 
Q 3406 4025 3406 3419 
Q 3406 3131 3298 2873 
Q 3191 2616 2906 2266 
Q 2828 2175 2409 1742 
Q 1991 1309 1228 531 
z
" transform="scale(0.015625)"/>
     </defs>
     <use xlink:href="#DejaVuSans-20d7" transform="translate(77.092717 12.015625)"/>
     <use xlink:href="#DejaVuSans-Oblique-79" transform="translate(0 0.78125)"/>
     <use xlink:href="#DejaVuSans-32" transform="translate(48.484636 -27.109375) scale(0.49)"/>
    </g>
   </g>
   <g id="text_12">
    <!-- $\vec{z_{\!_{2}}}$ -->
    <g style="fill: #ff0000" transform="translate(633.488302 424.536128) scale(0.1 -0.1)">
     <use xlink:href="#DejaVuSans-20d7" transform="translate(73.420353 12.015625)"/>
     <use xlink:href="#DejaVuSans-Oblique-7a" transform="translate(0 0.78125)"/>
     <use xlink:href="#DejaVuSans-32" transform="translate(41.795183 -27.109375) scale(0.49)"/>
    </g>
   </g>
   <g id="text_13">
    <!-- $\vec{y_{\!_{3}}}$ -->
    <g style="fill: #008000" transform="translate(444.388837 180.132575) scale(0.1 -0.1)">
     <defs>
      <path id="DejaVuSans-33" d="M 2597 2516 
Q 3050 2419 3304 2112 
Q 3559 1806 3559 1356 
Q 3559 666 3084 287 
Q 2609 -91 1734 -91 
Q 1441 -91 1130 -33 
Q 819 25 488 141 
L 488 750 
Q 750 597 1062 519 
Q 1375 441 1716 441 
Q 2309 441 2620 675 
Q 2931 909 2931 1356 
Q 2931 1769 2642 2001 
Q 2353 2234 1838 2234 
L 1294 2234 
L 1294 2753 
L 1863 2753 
Q 2328 2753 2575 2939 
Q 2822 3125 2822 3475 
Q 2822 3834 2567 4026 
Q 2313 4219 1838 4219 
Q 1578 4219 1281 4162 
Q 984 4106 628 3988 
L 628 4550 
Q 988 4650 1302 4700 
Q 1616 4750 1894 4750 
Q 2613 4750 3031 4423 
Q 3450 4097 3450 3541 
Q 3450 3153 3228 2886 
Q 3006 2619 2597 2516 
z
" transform="scale(0.015625)"/>
     </defs>
     <use xlink:href="#DejaVuSans-20d7" transform="translate(77.092717 12.015625)"/>
     <use xlink:href="#DejaVuSans-Oblique-79" transform="translate(0 0.78125)"/>
     <use xlink:href="#DejaVuSans-33" transform="translate(48.484636 -27.109375) scale(0.49)"/>
    </g>
   </g>
   <g id="text_14">
    <!-- $\vec{z_{\!_{3}}}$ -->
    <g style="fill: #008000" transform="translate(399.179565 216.086372) scale(0.1 -0.1)">
     <use xlink:href="#DejaVuSans-20d7" transform="translate(73.420353 12.015625)"/>
     <use xlink:href="#DejaVuSans-Oblique-7a" transform="translate(0 0.78125)"/>
     <use xlink:href="#DejaVuSans-33" transform="translate(41.795183 -27.109375) scale(0.49)"/>
    </g>
   </g>
  </g>
 </g>
 <defs>
  <clipPath id="paaca319d6f">
   <rect x="233.660791" y="80.0928" width="477.318419" height="513.9288"/>
  </clipPath>
 </defs>
</svg>
