<?xml version="1.0" encoding="utf-8" standalone="no"?>
<!DOCTYPE svg PUBLIC "-//W3C//DTD SVG 1.1//EN"
  "http://www.w3.org/Graphics/SVG/1.1/DTD/svg11.dtd">
<svg xmlns:xlink="http://www.w3.org/1999/xlink" width="1105.92pt" height="546.48pt" viewBox="0 0 1105.92 546.48" xmlns="http://www.w3.org/2000/svg" version="1.1">
 <metadata>
  <rdf:RDF xmlns:dc="http://purl.org/dc/elements/1.1/" xmlns:cc="http://creativecommons.org/ns#" xmlns:rdf="http://www.w3.org/1999/02/22-rdf-syntax-ns#">
   <cc:Work>
    <dc:type rdf:resource="http://purl.org/dc/dcmitype/StillImage"/>
    <dc:date>2024-08-21T17:35:15.209402</dc:date>
    <dc:format>image/svg+xml</dc:format>
    <dc:creator>
     <cc:Agent>
      <dc:title>Matplotlib v3.9.2, https://matplotlib.org/</dc:title>
     </cc:Agent>
    </dc:creator>
   </cc:Work>
  </rdf:RDF>
 </metadata>
 <defs>
  <style type="text/css">*{stroke-linejoin: round; stroke-linecap: butt}</style>
 </defs>
 <g id="figure_1">
  <g id="patch_1">
   <path d="M 0 546.48 
L 1105.92 546.48 
L 1105.92 0 
L 0 0 
z
" style="fill: #ffffff"/>
  </g>
  <g id="axes_1">
   <g id="patch_2">
    <path d="M 299.184604 546.48 
L 806.735396 546.48 
L 806.735396 0 
L 299.184604 0 
z
" style="fill: #ffffff"/>
   </g>
   <g id="patch_3">
    <path d="M 527.908927 160.764271 
C 530.042826 160.764271 532.089613 159.916464 533.598507 158.40757 
C 535.107401 156.898675 535.955208 154.851888 535.955208 152.717989 
C 535.955208 150.584091 535.107401 148.537303 533.598507 147.028409 
C 532.089613 145.519515 530.042826 144.671708 527.908927 144.671708 
C 525.775028 144.671708 523.728241 145.519515 522.219347 147.028409 
C 520.710452 148.537303 519.862645 150.584091 519.862645 152.717989 
C 519.862645 154.851888 520.710452 156.898675 522.219347 158.40757 
C 523.728241 159.916464 525.775028 160.764271 527.908927 160.764271 
L 527.908927 160.764271 
z
" clip-path="url(#pa3981b5f11)" style="fill: none; stroke: #008000; stroke-width: 1.5; stroke-linejoin: miter"/>
   </g>
   <g id="patch_4">
    <path d="M 456.757286 416.606918 
L 452.981885 417.166775 
L 453.187975 415.997979 
L 413.567773 409.011868 
L 413.574759 408.972248 
L 453.194961 415.958358 
L 453.401051 414.789562 
z
" clip-path="url(#pa3981b5f11)" style="stroke: #000000; stroke-linejoin: miter"/>
   </g>
   <g id="patch_5">
    <path d="M 421.186126 365.806037 
L 421.745982 369.581439 
L 420.577186 369.375348 
L 413.591076 408.995551 
L 413.551455 408.988565 
L 420.537566 369.368362 
L 419.36877 369.162272 
z
" clip-path="url(#pa3981b5f11)" style="stroke: #000000; stroke-linejoin: miter"/>
   </g>
   <g id="patch_6">
    <path d="M 457.4235 408.992058 
L 453.802674 410.199 
L 453.802674 409.012174 
L 413.571266 409.012174 
L 413.571266 408.971942 
L 453.802674 408.971942 
L 453.802674 407.785116 
z
" clip-path="url(#pa3981b5f11)" style="fill: #0000ff; stroke: #0000ff; stroke-linejoin: miter"/>
   </g>
   <g id="patch_7">
    <path d="M 413.571266 365.139823 
L 414.778208 368.76065 
L 413.591381 368.76065 
L 413.591381 408.992058 
L 413.55115 408.992058 
L 413.55115 368.76065 
L 412.364323 368.76065 
z
" clip-path="url(#pa3981b5f11)" style="fill: #0000ff; stroke: #0000ff; stroke-linejoin: miter"/>
   </g>
   <g id="patch_8">
    <path d="M 747.261282 431.403991 
L 743.475343 430.920503 
L 743.990256 429.851194 
L 707.742492 412.396516 
L 707.759947 412.360268 
L 744.007711 429.814946 
L 744.522624 428.745637 
z
" clip-path="url(#pa3981b5f11)" style="fill: #ff0000; stroke: #ff0000; stroke-linejoin: miter"/>
   </g>
   <g id="patch_9">
    <path d="M 723.018202 362.127841 
L 722.534714 365.91378 
L 721.465404 365.398867 
L 704.010726 401.646631 
L 703.974479 401.629176 
L 721.429157 365.381412 
L 720.359848 364.866499 
z
" clip-path="url(#pa3981b5f11)" style="fill: #ff0000; stroke: #ff0000; stroke-linejoin: miter"/>
   </g>
   <g id="patch_10">
    <path d="M 700.501667 416.933738 
C 702.635566 416.933738 704.682353 416.085931 706.191247 414.577036 
C 707.700141 413.068142 708.547948 411.021355 708.547948 408.887456 
C 708.547948 406.753557 707.700141 404.70677 706.191247 403.197876 
C 704.682353 401.688982 702.635566 400.841175 700.501667 400.841175 
C 698.367768 400.841175 696.320981 401.688982 694.812087 403.197876 
C 693.303192 404.70677 692.455385 406.753557 692.455385 408.887456 
C 692.455385 411.021355 693.303192 413.068142 694.812087 414.577036 
C 696.320981 416.085931 698.367768 416.933738 700.501667 416.933738 
L 700.501667 416.933738 
z
" clip-path="url(#pa3981b5f11)" style="fill: none; stroke: #ff0000; stroke-width: 1.5; stroke-linejoin: miter"/>
   </g>
   <g id="PathCollection_1">
    <defs>
     <path id="me06047e9a5" d="M -3 0 
L 3 0 
M 0 3 
L 0 -3 
" style="stroke: #000000; stroke-width: 1.5"/>
    </defs>
    <g clip-path="url(#pa3981b5f11)">
     <use xlink:href="#me06047e9a5" x="425.011411" y="276.228412" style="stroke: #000000; stroke-width: 1.5"/>
    </g>
   </g>
   <g id="patch_11">
    <path d="M 601.865757 295.917087 
C 589.825045 287.260946 575.714873 281.925614 560.95924 280.449533 
C 546.203608 278.973451 531.316174 281.408004 517.799381 287.507496 
" clip-path="url(#pa3981b5f11)" style="fill: none; stroke: #ff0000; stroke-width: 1.5; stroke-linejoin: miter"/>
   </g>
   <g id="patch_12">
    <path d="M 322.255094 360.295796 
C 337.010904 378.331954 356.258538 392.169194 378.055523 400.411061 
C 399.852508 408.652927 423.440068 411.012511 446.437743 407.251684 
" clip-path="url(#pa3981b5f11)" style="fill: none; stroke: #ff0000; stroke-width: 1.5; stroke-linejoin: miter"/>
   </g>
   <g id="patch_13">
    <path d="M 521.911468 101.167175 
L 523.528751 104.624268 
L 522.349876 104.761419 
L 526.999069 144.72329 
L 526.959107 144.72794 
L 522.309914 104.766068 
L 521.131039 104.903219 
z
" clip-path="url(#pa3981b5f11)" style="fill: #008000; stroke: #008000; stroke-linejoin: miter"/>
   </g>
   <g id="patch_14">
    <path d="M 476.358112 158.715448 
L 479.815205 157.098165 
L 479.952356 158.27704 
L 519.914228 153.627847 
L 519.918877 153.667809 
L 479.957005 158.317002 
L 480.094157 159.495877 
z
" clip-path="url(#pa3981b5f11)" style="fill: #008000; stroke: #008000; stroke-linejoin: miter"/>
   </g>
   <g id="patch_15">
    <path d="M 527.908927 160.764271 
C 530.042826 160.764271 532.089613 159.916464 533.598507 158.40757 
C 535.107401 156.898675 535.955208 154.851888 535.955208 152.717989 
C 535.955208 150.584091 535.107401 148.537303 533.598507 147.028409 
C 532.089613 145.519515 530.042826 144.671708 527.908927 144.671708 
C 525.775028 144.671708 523.728241 145.519515 522.219347 147.028409 
C 520.710452 148.537303 519.862645 150.584091 519.862645 152.717989 
C 519.862645 154.851888 520.710452 156.898675 522.219347 158.40757 
C 523.728241 159.916464 525.775028 160.764271 527.908927 160.764271 
L 527.908927 160.764271 
z
" clip-path="url(#pa3981b5f11)" style="fill: none; stroke: #008000; stroke-width: 1.5; stroke-linejoin: miter"/>
   </g>
   <g id="patch_16">
    <path d="M 513.031509 24.84 
C 479.129165 28.784223 448.149201 46.052954 426.96561 72.814519 
C 405.78202 99.576083 396.086714 133.693063 400.030938 167.595407 
C 403.975161 201.497751 421.243892 232.477715 448.005457 253.661306 
C 474.767021 274.844896 508.884001 284.540202 542.786345 280.595979 
" clip-path="url(#pa3981b5f11)" style="fill: none; stroke: #008000; stroke-width: 1.5; stroke-linejoin: miter"/>
   </g>
   <g id="patch_17">
    <path d="M 542.786345 280.595979 
C 576.688689 276.651755 607.668653 259.383024 628.852243 232.62146 
C 650.035834 205.859895 659.73114 171.742916 655.786916 137.840571 
C 651.842693 103.938227 634.573962 72.958263 607.812397 51.774673 
C 581.050833 30.591082 546.933853 20.895777 513.031509 24.84 
" clip-path="url(#pa3981b5f11)" style="fill: none; stroke-dasharray: 6.4,1.6,1,1.6; stroke-dashoffset: 0; stroke: #008000; stroke-linejoin: miter"/>
   </g>
   <g id="patch_18">
    <path d="M 542.786345 280.595979 
C 610.591033 272.707532 674.119469 251.652088 719.275637 222.101537 
C 764.431805 192.550985 787.609129 156.865498 783.664906 122.963154 
C 779.720682 89.060809 748.969933 59.649353 698.235791 41.25475 
C 647.501649 22.860146 580.836197 16.951553 513.031509 24.84 
" clip-path="url(#pa3981b5f11)" style="fill: none; stroke: #008000; stroke-width: 1.5; stroke-linejoin: miter"/>
   </g>
   <g id="patch_19">
    <path d="M 532.431873 429.95039 
C 533.041623 426.492326 533.500172 423.0093 533.806211 419.511253 
C 534.112251 416.013205 534.265489 412.503467 534.265489 408.992058 
" clip-path="url(#pa3981b5f11)" style="fill: none; stroke: #0000ff; stroke-linejoin: miter"/>
   </g>
   <g id="patch_20">
    <path d="M 534.265489 408.992058 
L 535.874746 413.015199 
L 532.656233 413.015199 
z
" clip-path="url(#pa3981b5f11)" style="fill: #0000ff; stroke: #0000ff; stroke-linejoin: miter"/>
   </g>
   <g id="patch_21">
    <path d="M 628.006139 373.9781 
C 625.392362 379.406076 623.396449 385.110474 622.055956 390.983959 
C 620.715463 396.857444 620.038851 402.862944 620.038851 408.887456 
" clip-path="url(#pa3981b5f11)" style="fill: none; stroke: #ff0000; stroke-linejoin: miter"/>
   </g>
   <g id="patch_22">
    <path d="M 628.006139 373.9781 
L 627.710582 378.301063 
L 624.81076 376.904689 
z
" clip-path="url(#pa3981b5f11)" style="fill: #ff0000; stroke: #ff0000; stroke-linejoin: miter"/>
   </g>
   <g id="patch_23">
    <path d="M 673.243874 364.515909 
C 673.243874 347.489587 669.641022 330.654397 662.672655 315.119357 
C 655.704289 299.584316 645.526857 285.698206 632.810797 274.375774 
C 620.094738 263.053342 605.125543 254.548792 588.889308 249.422361 
C 572.653073 244.295929 555.514322 242.662711 538.602071 244.630294 
" clip-path="url(#pa3981b5f11)" style="fill: none; stroke: #000000; stroke-linejoin: miter"/>
   </g>
   <g id="patch_24">
    <path d="M 538.602071 244.630294 
L 542.41229 242.5669 
L 542.784226 245.76385 
z
" clip-path="url(#pa3981b5f11)" style="stroke: #000000; stroke-linejoin: miter"/>
   </g>
   <g id="patch_25">
    <path d="M 393.455562 505.547437 
L 433.68697 505.547437 
L 433.68697 441.177184 
L 393.455562 441.177184 
L 393.455562 505.547437 
z
" clip-path="url(#pa3981b5f11)" style="fill: none; stroke: #000000; stroke-linejoin: miter"/>
   </g>
   <g id="matplotlib.axis_1">
    <g id="xtick_1"/>
    <g id="xtick_2"/>
    <g id="xtick_3"/>
    <g id="xtick_4"/>
    <g id="xtick_5"/>
    <g id="xtick_6"/>
   </g>
   <g id="matplotlib.axis_2">
    <g id="ytick_1"/>
    <g id="ytick_2"/>
    <g id="ytick_3"/>
    <g id="ytick_4"/>
    <g id="ytick_5"/>
    <g id="ytick_6"/>
    <g id="ytick_7"/>
   </g>
   <g id="line2d_1">
    <defs>
     <path id="m95d3f83d11" d="M -3 0 
L 3 0 
M 0 3 
L 0 -3 
" style="stroke: #000000"/>
    </defs>
    <g clip-path="url(#pa3981b5f11)">
     <use xlink:href="#m95d3f83d11" x="413.571266" y="408.992058" style="stroke: #000000"/>
    </g>
   </g>
   <g id="line2d_2">
    <defs>
     <path id="ma9156bbdcc" d="M -3 0 
L 3 0 
M 0 3 
L 0 -3 
" style="stroke: #0000ff"/>
    </defs>
    <g clip-path="url(#pa3981b5f11)">
     <use xlink:href="#ma9156bbdcc" x="413.571266" y="408.992058" style="fill: #0000ff; stroke: #0000ff"/>
    </g>
   </g>
   <g id="line2d_3">
    <defs>
     <path id="m4546c4419b" d="M -3 0 
L 3 0 
M 0 3 
L 0 -3 
" style="stroke: #ff00ff"/>
    </defs>
    <g clip-path="url(#pa3981b5f11)">
     <use xlink:href="#m4546c4419b" x="552.54965" y="364.515909" style="fill: #ff00ff; stroke: #ff00ff"/>
    </g>
   </g>
   <g id="line2d_4">
    <path d="M 389.432421 408.992058 
L 437.71011 408.992058 
" clip-path="url(#pa3981b5f11)" style="fill: none; stroke: #0000ff; stroke-width: 1.5; stroke-linecap: square"/>
   </g>
   <g id="line2d_5">
    <path d="M 413.571266 408.992058 
L 413.571266 521.64 
" clip-path="url(#pa3981b5f11)" style="fill: none; stroke: #0000ff; stroke-width: 1.5; stroke-linecap: square"/>
   </g>
   <g id="line2d_6">
    <path d="M 693.252114 405.396521 
L 425.011411 276.228412 
" clip-path="url(#pa3981b5f11)" style="fill: none; stroke: #ff0000; stroke-width: 1.5; stroke-linecap: square"/>
   </g>
   <g id="line2d_7">
    <path d="M 552.54965 364.515909 
L 517.799381 287.507496 
" clip-path="url(#pa3981b5f11)" style="fill: none; stroke-dasharray: 5.12,1.28,0.8,1.28; stroke-dashoffset: 0; stroke: #ff0000; stroke-width: 0.8"/>
   </g>
   <g id="line2d_8">
    <path d="M 552.54965 364.515909 
L 601.865757 295.917087 
" clip-path="url(#pa3981b5f11)" style="fill: none; stroke-dasharray: 5.12,1.28,0.8,1.28; stroke-dashoffset: 0; stroke: #ff0000; stroke-width: 0.8"/>
   </g>
   <g id="line2d_9">
    <path d="M 425.011411 276.228412 
L 446.437743 407.251684 
" clip-path="url(#pa3981b5f11)" style="fill: none; stroke-dasharray: 5.12,1.28,0.8,1.28; stroke-dashoffset: 0; stroke: #ff0000; stroke-width: 0.8"/>
   </g>
   <g id="line2d_10">
    <path d="M 425.011411 276.228412 
L 322.255094 360.295796 
" clip-path="url(#pa3981b5f11)" style="fill: none; stroke-dasharray: 5.12,1.28,0.8,1.28; stroke-dashoffset: 0; stroke: #ff0000; stroke-width: 0.8"/>
   </g>
   <g id="line2d_11">
    <path d="M 453.191468 415.978168 
L 532.431873 429.95039 
" clip-path="url(#pa3981b5f11)" style="fill: none; stroke-dasharray: 6.4,1.6,1,1.6; stroke-dashoffset: 0; stroke: #000000"/>
   </g>
   <g id="line2d_12">
    <path d="M 453.802674 408.992058 
L 534.265489 408.992058 
" clip-path="url(#pa3981b5f11)" style="fill: none; stroke-dasharray: 6.4,1.6,1,1.6; stroke-dashoffset: 0; stroke: #0000ff"/>
   </g>
   <g id="line2d_13">
    <path d="M 692.455385 408.887456 
L 620.038851 408.887456 
" clip-path="url(#pa3981b5f11)" style="fill: none; stroke-dasharray: 6.4,1.6,1,1.6; stroke-dashoffset: 0; stroke: #0000ff"/>
   </g>
   <g id="line2d_14">
    <path d="M 528.838766 160.710364 
L 552.54965 364.515909 
" clip-path="url(#pa3981b5f11)" style="fill: none; stroke-dasharray: 6.4,1.6,1,1.6; stroke-dashoffset: 0; stroke: #008000"/>
   </g>
   <g id="line2d_15">
    <path d="M 552.54965 364.515909 
L 673.243874 364.515909 
" clip-path="url(#pa3981b5f11)" style="fill: none; stroke-dasharray: 6.4,1.6,1,1.6; stroke-dashoffset: 0; stroke: #0000ff"/>
   </g>
   <g id="line2d_16">
    <path d="M 393.455562 473.36231 
L 361.270435 473.36231 
" clip-path="url(#pa3981b5f11)" style="fill: none; stroke: #000000; stroke-width: 1.5; stroke-linecap: square"/>
   </g>
   <g id="line2d_17">
    <path d="M 361.270435 457.269747 
L 361.270435 489.454874 
" clip-path="url(#pa3981b5f11)" style="fill: none; stroke: #000000; stroke-width: 1.5; stroke-linecap: square"/>
   </g>
   <g id="line2d_18">
    <path d="M 361.270435 457.269747 
L 353.224154 465.316029 
" clip-path="url(#pa3981b5f11)" style="fill: none; stroke: #000000; stroke-width: 1.5; stroke-linecap: square"/>
   </g>
   <g id="line2d_19">
    <path d="M 361.270435 465.316029 
L 353.224154 473.36231 
" clip-path="url(#pa3981b5f11)" style="fill: none; stroke: #000000; stroke-width: 1.5; stroke-linecap: square"/>
   </g>
   <g id="line2d_20">
    <path d="M 361.270435 473.36231 
L 353.224154 481.408592 
" clip-path="url(#pa3981b5f11)" style="fill: none; stroke: #000000; stroke-width: 1.5; stroke-linecap: square"/>
   </g>
   <g id="line2d_21">
    <path d="M 361.270435 481.408592 
L 353.224154 489.454874 
" clip-path="url(#pa3981b5f11)" style="fill: none; stroke: #000000; stroke-width: 1.5; stroke-linecap: square"/>
   </g>
   <g id="line2d_22">
    <path d="M 361.270435 489.454874 
L 353.224154 497.501155 
" clip-path="url(#pa3981b5f11)" style="fill: none; stroke: #000000; stroke-width: 1.5; stroke-linecap: square"/>
   </g>
   <g id="line2d_23">
    <path d="M 700.501667 416.933738 
L 700.501667 449.118864 
" clip-path="url(#pa3981b5f11)" style="fill: none; stroke: #000000; stroke-width: 1.5; stroke-linecap: square"/>
   </g>
   <g id="line2d_24">
    <path d="M 716.59423 449.118864 
L 684.409104 449.118864 
" clip-path="url(#pa3981b5f11)" style="fill: none; stroke: #000000; stroke-width: 1.5; stroke-linecap: square"/>
   </g>
   <g id="line2d_25">
    <path d="M 716.59423 449.118864 
L 708.547948 457.165146 
" clip-path="url(#pa3981b5f11)" style="fill: none; stroke: #000000; stroke-width: 1.5; stroke-linecap: square"/>
   </g>
   <g id="line2d_26">
    <path d="M 708.547948 449.118864 
L 700.501667 457.165146 
" clip-path="url(#pa3981b5f11)" style="fill: none; stroke: #000000; stroke-width: 1.5; stroke-linecap: square"/>
   </g>
   <g id="line2d_27">
    <path d="M 700.501667 449.118864 
L 692.455385 457.165146 
" clip-path="url(#pa3981b5f11)" style="fill: none; stroke: #000000; stroke-width: 1.5; stroke-linecap: square"/>
   </g>
   <g id="line2d_28">
    <path d="M 692.455385 449.118864 
L 684.409104 457.165146 
" clip-path="url(#pa3981b5f11)" style="fill: none; stroke: #000000; stroke-width: 1.5; stroke-linecap: square"/>
   </g>
   <g id="line2d_29">
    <path d="M 684.409104 449.118864 
L 676.362822 457.165146 
" clip-path="url(#pa3981b5f11)" style="fill: none; stroke: #000000; stroke-width: 1.5; stroke-linecap: square"/>
   </g>
   <g id="line2d_30">
    <path d="M 535.955208 152.717989 
L 568.140335 152.717989 
" clip-path="url(#pa3981b5f11)" style="fill: none; stroke: #000000; stroke-width: 1.5; stroke-linecap: square"/>
   </g>
   <g id="line2d_31">
    <path d="M 568.140335 136.625426 
L 568.140335 168.810553 
" clip-path="url(#pa3981b5f11)" style="fill: none; stroke: #000000; stroke-width: 1.5; stroke-linecap: square"/>
   </g>
   <g id="line2d_32">
    <path d="M 568.140335 136.625426 
L 576.186616 144.671708 
" clip-path="url(#pa3981b5f11)" style="fill: none; stroke: #000000; stroke-width: 1.5; stroke-linecap: square"/>
   </g>
   <g id="line2d_33">
    <path d="M 568.140335 144.671708 
L 576.186616 152.717989 
" clip-path="url(#pa3981b5f11)" style="fill: none; stroke: #000000; stroke-width: 1.5; stroke-linecap: square"/>
   </g>
   <g id="line2d_34">
    <path d="M 568.140335 152.717989 
L 576.186616 160.764271 
" clip-path="url(#pa3981b5f11)" style="fill: none; stroke: #000000; stroke-width: 1.5; stroke-linecap: square"/>
   </g>
   <g id="line2d_35">
    <path d="M 568.140335 160.764271 
L 576.186616 168.810553 
" clip-path="url(#pa3981b5f11)" style="fill: none; stroke: #000000; stroke-width: 1.5; stroke-linecap: square"/>
   </g>
   <g id="line2d_36">
    <path d="M 568.140335 168.810553 
L 576.186616 176.856834 
" clip-path="url(#pa3981b5f11)" style="fill: none; stroke: #000000; stroke-width: 1.5; stroke-linecap: square"/>
   </g>
   <g id="patch_26">
    <path d="M 413.571266 546.48 
L 413.571266 0 
" style="fill: none; stroke: #000000; stroke-width: 0.8; stroke-linejoin: miter; stroke-linecap: square"/>
   </g>
   <g id="patch_27">
    <path d="M 806.735396 546.48 
L 806.735396 0 
" style="fill: none"/>
   </g>
   <g id="patch_28">
    <path d="M 299.184604 408.992058 
L 806.735396 408.992058 
" style="fill: none; stroke: #000000; stroke-width: 0.8; stroke-linejoin: miter; stroke-linecap: square"/>
   </g>
   <g id="patch_29">
    <path d="M 299.184604 0 
L 806.735396 0 
" style="fill: none"/>
   </g>
   <g id="text_1">
    <!-- O -->
    <g transform="translate(399.171266 401.792058) scale(0.12 -0.12)">
     <defs>
      <path id="DejaVuSans-4f" d="M 2522 4238 
Q 1834 4238 1429 3725 
Q 1025 3213 1025 2328 
Q 1025 1447 1429 934 
Q 1834 422 2522 422 
Q 3209 422 3611 934 
Q 4013 1447 4013 2328 
Q 4013 3213 3611 3725 
Q 3209 4238 2522 4238 
z
M 2522 4750 
Q 3503 4750 4090 4092 
Q 4678 3434 4678 2328 
Q 4678 1225 4090 567 
Q 3503 -91 2522 -91 
Q 1538 -91 948 565 
Q 359 1222 359 2328 
Q 359 3434 948 4092 
Q 1538 4750 2522 4750 
z
" transform="scale(0.015625)"/>
     </defs>
     <use xlink:href="#DejaVuSans-4f"/>
    </g>
   </g>
   <g id="text_2">
    <!-- $S_{0}$ -->
    <g transform="translate(420.771266 423.392058) scale(0.12 -0.12)">
     <defs>
      <path id="DejaVuSans-Oblique-53" d="M 3859 4513 
L 3738 3897 
Q 3422 4066 3111 4152 
Q 2800 4238 2509 4238 
Q 1944 4238 1609 3991 
Q 1275 3744 1275 3334 
Q 1275 3109 1398 2989 
Q 1522 2869 2034 2731 
L 2413 2638 
Q 3053 2472 3303 2217 
Q 3553 1963 3553 1503 
Q 3553 797 2998 353 
Q 2444 -91 1538 -91 
Q 1166 -91 791 -17 
Q 416 56 38 206 
L 166 856 
Q 513 641 861 531 
Q 1209 422 1556 422 
Q 2147 422 2503 684 
Q 2859 947 2859 1369 
Q 2859 1650 2717 1795 
Q 2575 1941 2106 2059 
L 1728 2156 
Q 1081 2325 845 2545 
Q 609 2766 609 3163 
Q 609 3859 1145 4304 
Q 1681 4750 2541 4750 
Q 2875 4750 3203 4690 
Q 3531 4631 3859 4513 
z
" transform="scale(0.015625)"/>
      <path id="DejaVuSans-30" d="M 2034 4250 
Q 1547 4250 1301 3770 
Q 1056 3291 1056 2328 
Q 1056 1369 1301 889 
Q 1547 409 2034 409 
Q 2525 409 2770 889 
Q 3016 1369 3016 2328 
Q 3016 3291 2770 3770 
Q 2525 4250 2034 4250 
z
M 2034 4750 
Q 2819 4750 3233 4129 
Q 3647 3509 3647 2328 
Q 3647 1150 3233 529 
Q 2819 -91 2034 -91 
Q 1250 -91 836 529 
Q 422 1150 422 2328 
Q 422 3509 836 4129 
Q 1250 4750 2034 4750 
z
" transform="scale(0.015625)"/>
     </defs>
     <use xlink:href="#DejaVuSans-Oblique-53" transform="translate(0 0.78125)"/>
     <use xlink:href="#DejaVuSans-30" transform="translate(63.476562 -15.625) scale(0.7)"/>
    </g>
   </g>
   <g id="text_3">
    <!-- $B_{0}$ -->
    <g transform="translate(552.54965 378.915909) scale(0.12 -0.12)">
     <defs>
      <path id="DejaVuSans-Oblique-42" d="M 1081 4666 
L 2694 4666 
Q 3350 4666 3675 4422 
Q 4000 4178 4000 3688 
Q 4000 3238 3720 2911 
Q 3441 2584 2988 2516 
Q 3375 2428 3569 2181 
Q 3763 1934 3763 1522 
Q 3763 819 3242 409 
Q 2722 0 1819 0 
L 172 0 
L 1081 4666 
z
M 1234 2228 
L 903 519 
L 1919 519 
Q 2491 519 2800 781 
Q 3109 1044 3109 1522 
Q 3109 1891 2904 2059 
Q 2700 2228 2247 2228 
L 1234 2228 
z
M 1606 4147 
L 1331 2741 
L 2272 2741 
Q 2775 2741 3058 2959 
Q 3341 3178 3341 3566 
Q 3341 3869 3150 4008 
Q 2959 4147 2541 4147 
L 1606 4147 
z
" transform="scale(0.015625)"/>
     </defs>
     <use xlink:href="#DejaVuSans-Oblique-42" transform="translate(0 0.09375)"/>
     <use xlink:href="#DejaVuSans-30" transform="translate(68.603516 -16.3125) scale(0.7)"/>
    </g>
   </g>
   <g id="text_4">
    <!-- L -->
    <g transform="translate(686.101667 423.287456) scale(0.12 -0.12)">
     <defs>
      <path id="DejaVuSans-4c" d="M 628 4666 
L 1259 4666 
L 1259 531 
L 3531 531 
L 3531 0 
L 628 0 
L 628 4666 
z
" transform="scale(0.015625)"/>
     </defs>
     <use xlink:href="#DejaVuSans-4c"/>
    </g>
   </g>
   <g id="text_5">
    <!-- $A_{0}$ -->
    <g transform="translate(415.411411 271.428412) scale(0.12 -0.12)">
     <defs>
      <path id="DejaVuSans-Oblique-41" d="M 2356 4666 
L 3072 4666 
L 3938 0 
L 3278 0 
L 3084 1197 
L 984 1197 
L 325 0 
L -341 0 
L 2356 4666 
z
M 2584 4044 
L 1275 1722 
L 2988 1722 
L 2584 4044 
z
" transform="scale(0.015625)"/>
     </defs>
     <use xlink:href="#DejaVuSans-Oblique-41" transform="translate(0 0.09375)"/>
     <use xlink:href="#DejaVuSans-30" transform="translate(68.408203 -16.3125) scale(0.7)"/>
    </g>
   </g>
   <g id="text_6">
    <!-- C -->
    <g transform="translate(535.108927 145.517989) scale(0.12 -0.12)">
     <defs>
      <path id="DejaVuSans-43" d="M 4122 4306 
L 4122 3641 
Q 3803 3938 3442 4084 
Q 3081 4231 2675 4231 
Q 1875 4231 1450 3742 
Q 1025 3253 1025 2328 
Q 1025 1406 1450 917 
Q 1875 428 2675 428 
Q 3081 428 3442 575 
Q 3803 722 4122 1019 
L 4122 359 
Q 3791 134 3420 21 
Q 3050 -91 2638 -91 
Q 1578 -91 968 557 
Q 359 1206 359 2328 
Q 359 3453 968 4101 
Q 1578 4750 2638 4750 
Q 3056 4750 3426 4639 
Q 3797 4528 4122 4306 
z
" transform="scale(0.015625)"/>
     </defs>
     <use xlink:href="#DejaVuSans-43"/>
    </g>
   </g>
   <g id="text_7">
    <!-- $\vec{y_{\!_{0}}}$ -->
    <g transform="translate(459.191468 427.978168) scale(0.1 -0.1)">
     <defs>
      <path id="DejaVuSans-20d7" d="M -3009 4066 
L -3009 4378 
L -694 4378 
L -1106 4863 
L -713 4863 
L -166 4222 
L -713 3581 
L -1106 3581 
L -694 4066 
L -3009 4066 
z
" transform="scale(0.015625)"/>
      <path id="DejaVuSans-Oblique-79" d="M 1588 -325 
Q 1188 -997 936 -1164 
Q 684 -1331 294 -1331 
L -159 -1331 
L -63 -850 
L 269 -850 
Q 509 -850 678 -719 
Q 847 -588 1056 -206 
L 1234 128 
L 459 3500 
L 1069 3500 
L 1650 819 
L 3256 3500 
L 3859 3500 
L 1588 -325 
z
" transform="scale(0.015625)"/>
     </defs>
     <use xlink:href="#DejaVuSans-20d7" transform="translate(77.092717 12.015625)"/>
     <use xlink:href="#DejaVuSans-Oblique-79" transform="translate(0 0.78125)"/>
     <use xlink:href="#DejaVuSans-30" transform="translate(48.484636 -27.109375) scale(0.49)"/>
    </g>
   </g>
   <g id="text_8">
    <!-- $\vec{z_{\!_{0}}}$ -->
    <g transform="translate(426.557376 363.371855) scale(0.1 -0.1)">
     <defs>
      <path id="DejaVuSans-Oblique-7a" d="M 744 3500 
L 3475 3500 
L 3372 2975 
L 738 459 
L 2913 459 
L 2822 0 
L -19 0 
L 84 525 
L 2719 3041 
L 653 3041 
L 744 3500 
z
" transform="scale(0.015625)"/>
     </defs>
     <use xlink:href="#DejaVuSans-20d7" transform="translate(73.420353 12.015625)"/>
     <use xlink:href="#DejaVuSans-Oblique-7a" transform="translate(0 0.78125)"/>
     <use xlink:href="#DejaVuSans-30" transform="translate(41.795183 -27.109375) scale(0.49)"/>
    </g>
   </g>
   <g id="text_9">
    <!-- $\vec{y_{\!_{1}}}$ -->
    <g style="fill: #0000ff" transform="translate(461.802674 408.992058) scale(0.1 -0.1)">
     <defs>
      <path id="DejaVuSans-31" d="M 794 531 
L 1825 531 
L 1825 4091 
L 703 3866 
L 703 4441 
L 1819 4666 
L 2450 4666 
L 2450 531 
L 3481 531 
L 3481 0 
L 794 0 
L 794 531 
z
" transform="scale(0.015625)"/>
     </defs>
     <use xlink:href="#DejaVuSans-20d7" transform="translate(77.092717 12.015625)"/>
     <use xlink:href="#DejaVuSans-Oblique-79" transform="translate(0 0.78125)"/>
     <use xlink:href="#DejaVuSans-31" transform="translate(48.484636 -27.109375) scale(0.49)"/>
    </g>
   </g>
   <g id="text_10">
    <!-- $\vec{z_{\!_{1}}}$ -->
    <g style="fill: #0000ff" transform="translate(401.571266 362.76065) scale(0.1 -0.1)">
     <use xlink:href="#DejaVuSans-20d7" transform="translate(73.420353 12.015625)"/>
     <use xlink:href="#DejaVuSans-Oblique-7a" transform="translate(0 0.78125)"/>
     <use xlink:href="#DejaVuSans-31" transform="translate(41.795183 -27.109375) scale(0.49)"/>
    </g>
   </g>
   <g id="text_11">
    <!-- $\vec{y_{\!_{2}}}$ -->
    <g style="fill: #ff0000" transform="translate(742.749431 420.342134) scale(0.1 -0.1)">
     <defs>
      <path id="DejaVuSans-32" d="M 1228 531 
L 3431 531 
L 3431 0 
L 469 0 
L 469 531 
Q 828 903 1448 1529 
Q 2069 2156 2228 2338 
Q 2531 2678 2651 2914 
Q 2772 3150 2772 3378 
Q 2772 3750 2511 3984 
Q 2250 4219 1831 4219 
Q 1534 4219 1204 4116 
Q 875 4013 500 3803 
L 500 4441 
Q 881 4594 1212 4672 
Q 1544 4750 1819 4750 
Q 2544 4750 2975 4387 
Q 3406 4025 3406 3419 
Q 3406 3131 3298 2873 
Q 3191 2616 2906 2266 
Q 2828 2175 2409 1742 
Q 1991 1309 1228 531 
z
" transform="scale(0.015625)"/>
     </defs>
     <use xlink:href="#DejaVuSans-20d7" transform="translate(77.092717 12.015625)"/>
     <use xlink:href="#DejaVuSans-Oblique-79" transform="translate(0 0.78125)"/>
     <use xlink:href="#DejaVuSans-32" transform="translate(48.484636 -27.109375) scale(0.49)"/>
    </g>
   </g>
   <g id="text_12">
    <!-- $\vec{z_{\!_{2}}}$ -->
    <g style="fill: #ff0000" transform="translate(723.956345 366.639692) scale(0.1 -0.1)">
     <use xlink:href="#DejaVuSans-20d7" transform="translate(73.420353 12.015625)"/>
     <use xlink:href="#DejaVuSans-Oblique-7a" transform="translate(0 0.78125)"/>
     <use xlink:href="#DejaVuSans-32" transform="translate(41.795183 -27.109375) scale(0.49)"/>
    </g>
   </g>
   <g id="text_13">
    <!-- $\vec{y_{\!_{3}}}$ -->
    <g style="fill: #008000" transform="translate(523.259734 106.756118) scale(0.1 -0.1)">
     <defs>
      <path id="DejaVuSans-33" d="M 2597 2516 
Q 3050 2419 3304 2112 
Q 3559 1806 3559 1356 
Q 3559 666 3084 287 
Q 2609 -91 1734 -91 
Q 1441 -91 1130 -33 
Q 819 25 488 141 
L 488 750 
Q 750 597 1062 519 
Q 1375 441 1716 441 
Q 2309 441 2620 675 
Q 2931 909 2931 1356 
Q 2931 1769 2642 2001 
Q 2353 2234 1838 2234 
L 1294 2234 
L 1294 2753 
L 1863 2753 
Q 2328 2753 2575 2939 
Q 2822 3125 2822 3475 
Q 2822 3834 2567 4026 
Q 2313 4219 1838 4219 
Q 1578 4219 1281 4162 
Q 984 4106 628 3988 
L 628 4550 
Q 988 4650 1302 4700 
Q 1616 4750 1894 4750 
Q 2613 4750 3031 4423 
Q 3450 4097 3450 3541 
Q 3450 3153 3228 2886 
Q 3006 2619 2597 2516 
z
" transform="scale(0.015625)"/>
     </defs>
     <use xlink:href="#DejaVuSans-20d7" transform="translate(77.092717 12.015625)"/>
     <use xlink:href="#DejaVuSans-Oblique-79" transform="translate(0 0.78125)"/>
     <use xlink:href="#DejaVuSans-33" transform="translate(48.484636 -27.109375) scale(0.49)"/>
    </g>
   </g>
   <g id="text_14">
    <!-- $\vec{z_{\!_{3}}}$ -->
    <g style="fill: #008000" transform="translate(475.947055 145.367182) scale(0.1 -0.1)">
     <use xlink:href="#DejaVuSans-20d7" transform="translate(73.420353 12.015625)"/>
     <use xlink:href="#DejaVuSans-Oblique-7a" transform="translate(0 0.78125)"/>
     <use xlink:href="#DejaVuSans-33" transform="translate(41.795183 -27.109375) scale(0.49)"/>
    </g>
   </g>
   <g id="text_15">
    <!-- $\alpha$ -->
    <g style="fill: #0000ff" transform="translate(518.152717 421.494646) scale(0.11 -0.11)">
     <defs>
      <path id="DejaVuSans-Oblique-3b1" d="M 2619 1628 
L 2622 2350 
Q 2625 3088 2069 3091 
Q 1653 3094 1394 2747 
Q 1069 2319 959 1747 
Q 825 1059 994 731 
Q 1169 397 1547 397 
Q 1966 397 2319 1063 
L 2619 1628 
z
M 2166 3578 
Q 3141 3594 3128 2584 
Q 3128 2584 3616 3500 
L 4128 3500 
L 3119 1603 
L 3109 919 
Q 3109 766 3194 638 
Q 3291 488 3391 488 
L 3669 488 
L 3575 0 
L 3228 0 
Q 2934 0 2722 263 
Q 2622 394 2619 669 
Q 2416 334 2066 50 
Q 1900 -81 1453 -78 
Q 722 -72 456 397 
Q 184 884 353 1747 
Q 534 2675 1009 3097 
Q 1544 3569 2166 3578 
z
" transform="scale(0.015625)"/>
     </defs>
     <use xlink:href="#DejaVuSans-Oblique-3b1" transform="translate(0 0.84375)"/>
    </g>
   </g>
   <g id="text_16">
    <!-- $\beta$ -->
    <g style="fill: #ff0000" transform="translate(626.380527 395.854309) scale(0.11 -0.11)">
     <defs>
      <path id="DejaVuSans-Oblique-3b2" d="M 872 216 
L 572 -1331 
L -6 -1331 
L 928 3478 
Q 1206 4903 2538 4903 
Q 3888 4903 3659 3700 
Q 3503 2844 2894 2531 
Q 3713 2250 3553 1416 
Q 3272 -69 1759 -66 
Q 1097 -63 872 216 
z
M 1019 966 
Q 1259 422 1875 425 
Q 2775 425 2966 1406 
Q 3138 2288 1675 2219 
L 1778 2750 
Q 2909 2731 3106 3750 
Q 3241 4438 2509 4434 
Q 1691 4434 1503 3459 
L 1019 966 
z
" transform="scale(0.015625)"/>
     </defs>
     <use xlink:href="#DejaVuSans-Oblique-3b2" transform="translate(0 0.390625)"/>
    </g>
   </g>
   <g id="text_17">
    <!-- $\gamma_{\!_{0}}$ -->
    <g transform="translate(620.109682 285.522756) scale(0.11 -0.11)">
     <defs>
      <path id="DejaVuSans-Oblique-3b3" d="M 1491 2950 
L 1838 788 
L 3456 3500 
L 4066 3500 
L 1972 0 
L 1713 -1331 
L 1138 -1331 
L 1397 0 
L 988 2613 
Q 925 3006 628 3006 
L 475 3006 
L 569 3500 
L 788 3500 
Q 1403 3500 1491 2950 
z
" transform="scale(0.015625)"/>
     </defs>
     <use xlink:href="#DejaVuSans-Oblique-3b3" transform="translate(0 0.3125)"/>
     <use xlink:href="#DejaVuSans-30" transform="translate(48.484636 -27.578125) scale(0.49)"/>
    </g>
   </g>
  </g>
 </g>
 <defs>
  <clipPath id="pa3981b5f11">
   <rect x="299.184604" y="0" width="507.550792" height="546.48"/>
  </clipPath>
 </defs>
</svg>
